<svg width="1000" height="1000" viewBox="0 0 1000 1000" fill="none" xmlns="http://www.w3.org/2000/svg">
<path d="M1000 0H0V1000H1000V0Z" fill="black"/>
<mask id="mask0_1_2" style="mask-type:luminance" maskUnits="userSpaceOnUse" x="0" y="0" width="1000" height="1000">
<path d="M1000 0H0V1000H1000V0Z" fill="white"/>
</mask>
<g mask="url(#mask0_1_2)">
<path d="M81.18 88.84C81.16 134.52 81.16 178.91 81.17 212.48H86.27C86.27 178.91 86.27 134.52 86.28 88.84H81.18Z" fill="#F52525"/>
<path d="M9.64 384.45V300.8C13.08 299.71 15.57 296.5 15.57 292.72C15.57 288.04 11.77 284.24 7.09 284.24C2.41 284.24 -1.39 288.04 -1.39 292.72C-1.39 296.51 1.11 299.73 4.55 300.81V384.45H9.64ZM7.09 289.34C8.95 289.34 10.47 290.86 10.47 292.72C10.47 294.58 8.95 296.1 7.09 296.1C5.23 296.1 3.71 294.58 3.71 292.72C3.71 290.86 5.23 289.34 7.09 289.34Z" fill="#F52525"/>
<path d="M119.66 -7.09L120.25 -6.38001C126.62 1.30999 132.59 9.52999 138.37 17.48C144.67 26.14 151.17 35.09 158.18 43.34C158.18 65.86 158.13 87.88 158.08 109.19C158.03 129.65 157.99 150.79 157.98 172.34L119.63 232V232.75C119.67 299.81 119.66 360.14 119.61 417.08C114.97 418.22 111.51 422.41 111.51 427.39C111.51 433.25 116.28 438.02 122.14 438.02C128 438.02 132.77 433.25 132.77 427.39C132.77 422.41 129.33 418.23 124.7 417.08C124.75 360.34 124.76 300.26 124.72 233.49L163.07 173.83V173.08C163.07 151.29 163.12 129.89 163.17 109.2C163.22 87.59 163.27 65.25 163.27 42.4V41.46L162.66 40.74C155.55 32.45 148.91 23.32 142.49 14.48C136.84 6.70999 131.01 -1.32001 124.76 -8.92001C124.76 -45.94 124.76 -84.2 124.73 -121.92H119.63C119.66 -83.89 119.66 -45.32 119.66 -8.01V-7.09ZM127.68 427.39C127.68 430.44 125.2 432.93 122.14 432.93C119.08 432.93 116.6 430.45 116.6 427.39C116.6 424.33 119.08 421.85 122.14 421.85C125.2 421.85 127.68 424.33 127.68 427.39Z" fill="#F52525"/>
<path d="M7.1 -53.05C-0.410002 -53.05 -6.52 -46.94 -6.52 -39.43C-6.52 -32.78 -1.73 -27.24 4.57 -26.06C4.69 58.88 4.71 149.1 4.64 257.63H9.74C9.81 149.1 9.79 58.88 9.67 -26.06C15.95 -27.27 20.72 -32.8 20.72 -39.43C20.72 -46.94 14.61 -53.05 7.1 -53.05ZM7.1 -30.91C2.4 -30.91 -1.42 -34.73 -1.42 -39.43C-1.42 -44.13 2.4 -47.95 7.1 -47.95C11.8 -47.95 15.62 -44.13 15.62 -39.43C15.62 -34.73 11.8 -30.91 7.1 -30.91Z" fill="#F52525"/>
<path d="M482.22 18.75C482.22 59.47 482.22 93.42 482.24 124.69C477.6 125.84 474.16 130.03 474.16 135.01C474.16 140.87 478.93 145.64 484.8 145.64C490.67 145.64 495.43 140.87 495.43 135.01C495.43 130.03 491.98 125.83 487.34 124.69C487.31 93.43 487.31 59.48 487.32 18.77C491.83 17.64 495.17 13.55 495.17 8.7C495.17 2.98 490.52 -1.68001 484.8 -1.68001C479.08 -1.68001 474.42 2.98 474.42 8.7C474.42 13.53 477.74 17.6 482.22 18.75ZM490.33 135.01C490.33 138.06 487.85 140.55 484.8 140.55C481.75 140.55 479.26 138.06 479.26 135.01C479.26 131.96 481.75 129.47 484.8 129.47C487.85 129.47 490.33 131.96 490.33 135.01ZM484.8 3.42C487.71 3.42 490.08 5.79 490.08 8.7C490.08 10.7 488.96 12.44 487.32 13.33C486.57 13.75 485.71 13.98 484.8 13.98C483.89 13.98 482.98 13.73 482.22 13.3C480.61 12.4 479.52 10.67 479.52 8.7C479.52 5.79 481.89 3.42 484.8 3.42Z" fill="#F52525"/>
<path d="M81.2 -82.68C81.17 -53.92 81.2 -28.25 81.22 1.33V12.54C78.29 19.62 43.12 104.28 43.04 104.46L42.85 104.93V105.43C42.65 159.5 42.66 212.67 42.7 257.81C39.27 258.9 36.78 262.11 36.78 265.89C36.78 270.57 40.58 274.37 45.26 274.37C49.94 274.37 53.74 270.57 53.74 265.89C53.74 262.1 51.24 258.88 47.8 257.8C47.76 212.81 47.75 159.84 47.95 105.95C48.9 103.67 54.38 90.48 86.14 14.02L86.34 13.55V1.33C86.3 -28.26 86.28 -53.92 86.31 -82.69C92.58 -83.91 97.32 -89.43 97.32 -96.05C97.32 -103.56 91.21 -109.67 83.7 -109.67C76.19 -109.67 70.08 -103.56 70.08 -96.05C70.08 -89.39 74.88 -83.85 81.21 -82.67L81.2 -82.68ZM45.25 269.27C43.39 269.27 41.87 267.75 41.87 265.89C41.87 264.03 43.39 262.51 45.25 262.51C47.11 262.51 48.63 264.03 48.63 265.89C48.63 267.75 47.11 269.27 45.25 269.27ZM83.7 -104.58C88.4 -104.58 92.22 -100.76 92.22 -96.06C92.22 -91.36 88.4 -87.54 83.7 -87.54C79 -87.54 75.18 -91.36 75.18 -96.06C75.18 -100.76 79 -104.58 83.7 -104.58Z" fill="#F52525"/>
<path d="M42.82 -148.8C42.66 -93.08 42.63 -32.7 42.75 35.71H47.85C47.73 -32.79 47.75 -93.23 47.92 -149.01C51.18 -150.19 53.52 -153.31 53.52 -156.97C53.52 -161.65 49.72 -165.45 45.04 -165.45C40.36 -165.45 36.56 -161.65 36.56 -156.97C36.56 -153.06 39.22 -149.77 42.82 -148.79V-148.8ZM45.03 -160.36C46.89 -160.36 48.41 -158.84 48.41 -156.98C48.41 -155.12 46.89 -153.6 45.03 -153.6C43.17 -153.6 41.65 -155.12 41.65 -156.98C41.65 -158.84 43.17 -160.36 45.03 -160.36Z" fill="#F52525"/>
<path d="M73.11 379.2C73.11 385.06 77.88 389.83 83.74 389.83C89.6 389.83 94.37 385.06 94.37 379.2C94.37 374.21 90.91 370.03 86.27 368.89C86.25 335.08 86.24 298.14 86.25 252.9H81.15C81.14 298.15 81.15 335.09 81.17 368.9C76.54 370.05 73.1 374.23 73.1 379.21L73.11 379.2ZM83.74 373.66C86.79 373.66 89.28 376.14 89.28 379.2C89.28 382.26 86.8 384.74 83.74 384.74C80.68 384.74 78.2 382.26 78.2 379.2C78.2 376.14 80.68 373.66 83.74 373.66Z" fill="#F52525"/>
<path d="M191.02 135.01C191.02 140.87 195.79 145.64 201.65 145.64C207.51 145.64 212.28 140.87 212.28 135.01C212.28 130.02 208.82 125.84 204.18 124.7C204.16 90.89 204.15 53.95 204.16 8.71001H199.06C199.05 53.96 199.06 90.9 199.08 124.71C194.45 125.86 191.01 130.04 191.01 135.02L191.02 135.01ZM201.65 129.47C204.7 129.47 207.19 131.95 207.19 135.01C207.19 138.07 204.71 140.55 201.65 140.55C198.59 140.55 196.11 138.07 196.11 135.01C196.11 131.95 198.59 129.47 201.65 129.47Z" fill="#F52525"/>
<path d="M124.73 79.32V78.59L96.91 34.34L92.59 37.05L119.62 80.05C119.64 103.97 119.64 122.8 119.62 140.61C115.14 141.76 111.82 145.82 111.82 150.65C111.82 156.37 116.47 161.03 122.2 161.03C127.93 161.03 132.58 156.37 132.58 150.65C132.58 145.8 129.23 141.72 124.72 140.59C124.75 122.6 124.75 103.57 124.72 79.31L124.73 79.32ZM127.48 150.66C127.48 153.57 125.11 155.94 122.2 155.94C119.29 155.94 116.92 153.57 116.92 150.66C116.92 147.75 119.29 145.38 122.2 145.38C125.11 145.38 127.48 147.75 127.48 150.66Z" fill="#F52525"/>
<path d="M19.5 426.25L23.72 429.1L52.99 385.8L53.02 385.07C53.85 360.82 54.48 341.81 55.05 323.83C59.59 322.85 63.08 318.88 63.24 314.03C63.43 308.31 58.93 303.5 53.21 303.31C50.44 303.2 47.8 304.21 45.78 306.1C43.76 307.99 42.59 310.56 42.5 313.33C42.34 318.16 45.52 322.32 49.96 323.62C49.4 341.43 48.78 360.24 47.96 384.15L19.51 426.23L19.5 426.25ZM47.59 313.52C47.64 312.11 48.23 310.8 49.26 309.84C50.25 308.92 51.52 308.42 52.86 308.42C52.92 308.42 52.98 308.42 53.04 308.42C55.95 308.52 58.24 310.96 58.14 313.87C58.04 316.78 55.6 319.05 52.69 318.97C49.78 318.87 47.49 316.43 47.59 313.52Z" fill="#F52525"/>
<path d="M184.46 357.65C180.25 358.77 177.14 362.61 177.14 367.17C177.14 372.61 181.56 377.03 187 377.03C192.44 377.03 196.86 372.61 196.86 367.17C196.86 362.62 193.76 358.79 189.56 357.66C189.58 329.81 189.59 299.41 189.58 262.42C193.79 261.29 196.9 257.46 196.9 252.9C196.9 247.46 192.48 243.04 187.04 243.04C181.6 243.04 177.18 247.46 177.18 252.9C177.18 257.45 180.29 261.29 184.49 262.42C184.5 299.42 184.49 329.81 184.47 357.66L184.46 357.65ZM191.76 367.17C191.76 369.8 189.62 371.94 186.99 371.94C184.36 371.94 182.22 369.8 182.22 367.17C182.22 364.54 184.36 362.4 186.99 362.4C189.62 362.4 191.76 364.54 191.76 367.17ZM182.26 252.9C182.26 250.27 184.4 248.13 187.03 248.13C189.66 248.13 191.8 250.27 191.8 252.9C191.8 255.53 189.66 257.67 187.03 257.67C184.4 257.67 182.26 255.53 182.26 252.9Z" fill="#F52525"/>
<path d="M140.21 233.04V396.91L166.42 436.87L170.68 434.07L145.3 395.38V234.64L179.73 185.3C180.56 185.57 181.45 185.71 182.37 185.71C187.14 185.71 191.02 181.83 191.02 177.06C191.02 172.29 187.14 168.41 182.37 168.41C177.6 168.41 173.72 172.29 173.72 177.06C173.72 179.06 174.41 180.9 175.56 182.37L140.21 233.03V233.04ZM182.37 173.52C184.33 173.52 185.92 175.11 185.92 177.07C185.92 179.03 184.33 180.62 182.37 180.62C180.41 180.62 178.82 179.03 178.82 177.07C178.82 175.11 180.41 173.52 182.37 173.52Z" fill="#F52525"/>
<path d="M193.18 205.57L188.81 202.95C183.39 212.01 177.23 220.1 171.28 227.93C166.78 233.85 162.12 239.97 157.73 246.55L157.3 247.19V247.96C157.3 286.27 157.3 338.49 157.27 379.02C153.74 380.11 151.16 383.4 151.16 387.28C151.16 392.05 155.04 395.93 159.81 395.93C164.58 395.93 168.46 392.05 168.46 387.28C168.46 383.4 165.89 380.11 162.37 379.02C162.4 338.76 162.4 286.97 162.4 248.73C166.58 242.51 171.03 236.67 175.34 231.01C181.38 223.07 187.62 214.86 193.19 205.56L193.18 205.57ZM159.81 390.84C157.85 390.84 156.26 389.25 156.26 387.29C156.26 385.33 157.85 383.74 159.81 383.74C161.77 383.74 163.36 385.33 163.36 387.29C163.36 389.25 161.77 390.84 159.81 390.84Z" fill="#F52525"/>
<path d="M385.03 88.84C385.01 134.52 385.01 178.91 385.02 212.48H390.12C390.12 178.91 390.12 134.52 390.13 88.84H385.03Z" fill="#F52525"/>
<path d="M313.49 384.45V300.8C316.93 299.71 319.42 296.5 319.42 292.72C319.42 288.04 315.62 284.24 310.94 284.24C306.26 284.24 302.46 288.04 302.46 292.72C302.46 296.51 304.96 299.73 308.4 300.81V384.45H313.49ZM310.94 289.34C312.8 289.34 314.32 290.86 314.32 292.72C314.32 294.58 312.8 296.1 310.94 296.1C309.08 296.1 307.56 294.58 307.56 292.72C307.56 290.86 309.08 289.34 310.94 289.34Z" fill="#F52525"/>
<path d="M289.08 77.17C289.06 122.83 289.06 167.23 289.07 200.81H294.17C294.17 167.23 294.17 122.83 294.18 77.17H289.08Z" fill="#F52525"/>
<path d="M310.95 -53.05C303.44 -53.05 297.33 -46.94 297.33 -39.43C297.33 -32.78 302.12 -27.24 308.42 -26.06C308.54 58.88 308.56 149.1 308.49 257.63H313.59C313.66 149.1 313.64 58.88 313.52 -26.06C319.8 -27.27 324.57 -32.8 324.57 -39.43C324.57 -46.94 318.46 -53.05 310.95 -53.05ZM310.95 -30.91C306.25 -30.91 302.43 -34.73 302.43 -39.43C302.43 -44.13 306.25 -47.95 310.95 -47.95C315.65 -47.95 319.47 -44.13 319.47 -39.43C319.47 -34.73 315.65 -30.91 310.95 -30.91Z" fill="#F52525"/>
<path d="M423.49 -119.7C423.52 -82.4 423.52 -44.6 423.52 -8.02V-7.10001L424.11 -6.39C430.48 1.3 436.45 9.52 442.23 17.47C448.53 26.13 455.03 35.08 462.04 43.33C462.04 65.85 461.99 87.87 461.94 109.18C461.89 129.64 461.85 150.78 461.84 172.33L423.49 231.99V232.74C423.53 299.8 423.52 360.13 423.47 417.07C418.83 418.21 415.37 422.4 415.37 427.38C415.37 433.24 420.14 438.01 426 438.01C431.86 438.01 436.63 433.24 436.63 427.38C436.63 422.4 433.19 418.22 428.56 417.07C428.61 360.33 428.62 300.25 428.58 233.48L466.93 173.82V173.07C466.93 151.28 466.98 129.88 467.03 109.19C467.08 87.58 467.13 65.24 467.13 42.39V41.45L466.52 40.73C459.41 32.44 452.77 23.31 446.35 14.47C440.7 6.7 434.87 -1.33001 428.62 -8.93001C428.62 -45.23 428.62 -82.72 428.59 -119.72C433.06 -120.87 436.38 -124.93 436.38 -129.76C436.38 -135.48 431.73 -140.14 426 -140.14C420.27 -140.14 415.62 -135.48 415.62 -129.76C415.62 -124.91 418.98 -120.83 423.49 -119.7ZM431.53 427.38C431.53 430.43 429.05 432.92 425.99 432.92C422.93 432.92 420.45 430.44 420.45 427.38C420.45 424.32 422.93 421.84 425.99 421.84C429.05 421.84 431.53 424.32 431.53 427.38ZM425.99 -135.04C428.9 -135.04 431.27 -132.67 431.27 -129.76C431.27 -126.85 428.9 -124.48 425.99 -124.48C423.08 -124.48 420.71 -126.85 420.71 -129.76C420.71 -132.67 423.08 -135.04 425.99 -135.04Z" fill="#F52525"/>
<path d="M385.05 -82.68C385.02 -53.92 385.05 -28.25 385.07 1.33V12.54C382.14 19.62 346.97 104.28 346.89 104.46L346.7 104.93V105.43C346.5 159.5 346.51 212.67 346.55 257.81C343.12 258.9 340.63 262.11 340.63 265.89C340.63 270.57 344.43 274.37 349.11 274.37C353.79 274.37 357.59 270.57 357.59 265.89C357.59 262.1 355.09 258.88 351.65 257.8C351.61 212.81 351.6 159.84 351.8 105.95C352.75 103.67 358.23 90.48 389.99 14.02L390.19 13.55V1.33C390.15 -28.26 390.13 -53.92 390.16 -82.69C396.43 -83.91 401.17 -89.43 401.17 -96.05C401.17 -103.56 395.06 -109.67 387.55 -109.67C380.04 -109.67 373.93 -103.56 373.93 -96.05C373.93 -89.39 378.73 -83.85 385.06 -82.67L385.05 -82.68ZM349.1 269.27C347.24 269.27 345.72 267.75 345.72 265.89C345.72 264.03 347.24 262.51 349.1 262.51C350.96 262.51 352.48 264.03 352.48 265.89C352.48 267.75 350.96 269.27 349.1 269.27ZM387.55 -104.58C392.25 -104.58 396.07 -100.76 396.07 -96.06C396.07 -91.36 392.25 -87.54 387.55 -87.54C382.85 -87.54 379.03 -91.36 379.03 -96.06C379.03 -100.76 382.85 -104.58 387.55 -104.58Z" fill="#F52525"/>
<path d="M346.68 -148.8C346.52 -93.08 346.49 -32.7 346.61 35.71H351.71C351.59 -32.79 351.61 -93.23 351.78 -149.01C355.04 -150.19 357.38 -153.31 357.38 -156.97C357.38 -161.65 353.58 -165.45 348.9 -165.45C344.22 -165.45 340.42 -161.65 340.42 -156.97C340.42 -153.06 343.08 -149.77 346.68 -148.79V-148.8ZM348.89 -160.36C350.75 -160.36 352.27 -158.84 352.27 -156.98C352.27 -155.12 350.75 -153.6 348.89 -153.6C347.03 -153.6 345.51 -155.12 345.51 -156.98C345.51 -158.84 347.03 -160.36 348.89 -160.36Z" fill="#F52525"/>
<path d="M376.96 379.2C376.96 385.06 381.73 389.83 387.59 389.83C393.45 389.83 398.22 385.06 398.22 379.2C398.22 374.21 394.76 370.03 390.12 368.89C390.1 335.08 390.09 298.14 390.1 252.9H385C384.99 298.15 385 335.09 385.02 368.9C380.39 370.05 376.95 374.23 376.95 379.21L376.96 379.2ZM387.59 373.66C390.64 373.66 393.13 376.14 393.13 379.2C393.13 382.26 390.65 384.74 387.59 384.74C384.53 384.74 382.05 382.26 382.05 379.2C382.05 376.14 384.53 373.66 387.59 373.66Z" fill="#F52525"/>
<path d="M263.19 4.78C256.77 13.61 250.13 22.75 243.02 31.04L242.41 31.76V32.7C242.41 55.55 242.46 77.89 242.51 99.49C242.56 120.19 242.61 141.59 242.61 163.38V164.13L280.96 223.79C280.92 290.57 280.93 350.65 280.98 407.38C276.35 408.53 272.91 412.71 272.91 417.69C272.91 423.55 277.68 428.32 283.54 428.32C289.4 428.32 294.17 423.55 294.17 417.69C294.17 412.7 290.71 408.52 286.07 407.38C286.02 350.44 286.01 290.12 286.05 223.05V222.3L247.7 162.64C247.7 141.09 247.65 119.95 247.6 99.48C247.55 78.18 247.5 56.15 247.5 33.64C254.51 25.39 261.01 16.44 267.31 7.78C273.09 -0.170001 279.06 -8.39 285.43 -16.08L286.02 -16.79V-17.71C286.02 -54.29 286.02 -92.09 286.05 -129.39C290.56 -130.52 293.92 -134.59 293.92 -139.45C293.92 -145.17 289.26 -149.83 283.54 -149.83C277.82 -149.83 273.16 -145.17 273.16 -139.45C273.16 -134.62 276.48 -130.57 280.95 -129.41C280.92 -92.41 280.92 -54.92 280.92 -18.62C274.67 -11.01 268.84 -2.99 263.19 4.78ZM289.07 417.69C289.07 420.74 286.59 423.23 283.53 423.23C280.47 423.23 277.99 420.75 277.99 417.69C277.99 414.63 280.47 412.15 283.53 412.15C286.59 412.15 289.07 414.63 289.07 417.69ZM278.25 -139.45C278.25 -142.36 280.62 -144.73 283.53 -144.73C286.44 -144.73 288.81 -142.36 288.81 -139.45C288.81 -136.54 286.44 -134.17 283.53 -134.17C280.62 -134.17 278.25 -136.54 278.25 -139.45Z" fill="#F52525"/>
<path d="M428.59 79.32V78.59L400.77 34.34L396.45 37.05L423.48 80.05C423.5 103.97 423.5 122.8 423.48 140.61C419 141.76 415.68 145.82 415.68 150.65C415.68 156.37 420.33 161.03 426.06 161.03C431.79 161.03 436.44 156.37 436.44 150.65C436.44 145.8 433.09 141.72 428.58 140.59C428.61 122.6 428.61 103.57 428.58 79.31L428.59 79.32ZM431.34 150.66C431.34 153.57 428.97 155.94 426.06 155.94C423.15 155.94 420.78 153.57 420.78 150.66C420.78 147.75 423.15 145.38 426.06 145.38C428.97 145.38 431.34 147.75 431.34 150.66Z" fill="#F52525"/>
<path d="M289.61 6.08L285.29 3.37L257.48 47.62V48.35C257.45 72.62 257.46 91.64 257.48 109.63C252.97 110.76 249.62 114.83 249.62 119.68C249.62 125.4 254.28 130.06 260 130.06C265.72 130.06 270.38 125.4 270.38 119.68C270.38 114.85 267.06 110.79 262.58 109.64C262.55 91.83 262.55 73 262.58 49.08L289.61 6.08ZM265.28 119.68C265.28 122.59 262.91 124.96 260 124.96C257.09 124.96 254.72 122.59 254.72 119.68C254.72 116.77 257.09 114.4 260 114.4C262.91 114.4 265.28 116.77 265.28 119.68Z" fill="#F52525"/>
<path d="M323.36 426.25L327.58 429.1L356.85 385.8L356.88 385.07C357.71 360.82 358.34 341.81 358.91 323.83C363.45 322.85 366.94 318.88 367.1 314.03C367.29 308.31 362.79 303.5 357.07 303.31C354.3 303.2 351.66 304.21 349.64 306.1C347.62 307.99 346.45 310.56 346.36 313.33C346.2 318.16 349.38 322.32 353.82 323.62C353.26 341.43 352.64 360.24 351.82 384.15L323.37 426.23L323.36 426.25ZM351.45 313.52C351.5 312.11 352.09 310.8 353.12 309.84C354.11 308.92 355.38 308.42 356.72 308.42C356.78 308.42 356.84 308.42 356.9 308.42C359.81 308.52 362.1 310.96 362 313.87C361.9 316.78 359.46 319.05 356.55 318.97C353.64 318.87 351.35 316.43 351.45 313.52Z" fill="#F52525"/>
<path d="M216.5 177.08C216.5 181.85 220.38 185.73 225.15 185.73C226.07 185.73 226.96 185.58 227.79 185.32L262.22 234.66V395.19L236.27 424.09L240.06 427.5L267.32 397.14V233.06L231.97 182.4C233.12 180.93 233.81 179.09 233.81 177.09C233.81 172.32 229.93 168.44 225.16 168.44C220.39 168.44 216.51 172.32 216.51 177.09L216.5 177.08ZM225.15 173.53C227.11 173.53 228.7 175.12 228.7 177.08C228.7 179.04 227.11 180.63 225.15 180.63C223.19 180.63 221.6 179.04 221.6 177.08C221.6 175.12 223.19 173.53 225.15 173.53Z" fill="#F52525"/>
<path d="M210.63 252.9C210.63 257.46 213.74 261.29 217.95 262.42C217.94 299.42 217.95 329.82 217.97 357.66C213.77 358.79 210.67 362.62 210.67 367.17C210.67 372.61 215.09 377.03 220.53 377.03C225.97 377.03 230.39 372.61 230.39 367.17C230.39 362.61 227.28 358.77 223.07 357.65C223.05 329.8 223.04 299.41 223.05 262.41C227.25 261.28 230.36 257.45 230.36 252.89C230.36 247.45 225.94 243.03 220.5 243.03C215.06 243.03 210.64 247.45 210.64 252.89L210.63 252.9ZM225.29 367.17C225.29 369.8 223.15 371.94 220.52 371.94C217.89 371.94 215.75 369.8 215.75 367.17C215.75 364.54 217.89 362.4 220.52 362.4C223.15 362.4 225.29 364.54 225.29 367.17ZM220.49 248.13C223.12 248.13 225.26 250.27 225.26 252.9C225.26 255.53 223.12 257.67 220.49 257.67C217.86 257.67 215.72 255.53 215.72 252.9C215.72 250.27 217.86 248.13 220.49 248.13Z" fill="#F52525"/>
<path d="M249.79 246.55C245.4 239.96 240.74 233.84 236.24 227.93C230.29 220.1 224.13 212.01 218.71 202.95L214.34 205.57C219.91 214.87 226.15 223.08 232.19 231.02C236.5 236.68 240.95 242.53 245.13 248.74C245.13 286.98 245.13 338.77 245.16 379.03C241.64 380.12 239.07 383.41 239.07 387.29C239.07 392.06 242.95 395.94 247.72 395.94C252.49 395.94 256.37 392.06 256.37 387.29C256.37 383.41 253.8 380.11 250.26 379.03C250.23 338.5 250.23 286.29 250.23 247.97V247.2L249.8 246.56L249.79 246.55ZM247.7 390.84C245.74 390.84 244.15 389.25 244.15 387.29C244.15 385.33 245.74 383.74 247.7 383.74C249.66 383.74 251.25 385.33 251.25 387.29C251.25 389.25 249.66 390.84 247.7 390.84Z" fill="#F52525"/>
<path d="M481.02 252.9C481.02 257.45 484.13 261.29 488.33 262.42C488.34 299.42 488.33 329.81 488.31 357.66C484.1 358.78 480.99 362.62 480.99 367.18C480.99 372.62 485.41 377.04 490.85 377.04C496.29 377.04 500.71 372.62 500.71 367.18C500.71 362.63 497.61 358.8 493.41 357.67C493.43 329.82 493.44 299.42 493.43 262.43C497.64 261.3 500.75 257.47 500.75 252.91C500.75 247.47 496.33 243.05 490.89 243.05C485.45 243.05 481.03 247.47 481.03 252.91L481.02 252.9ZM495.62 367.17C495.62 369.8 493.48 371.94 490.85 371.94C488.22 371.94 486.08 369.8 486.08 367.17C486.08 364.54 488.22 362.4 490.85 362.4C493.48 362.4 495.62 364.54 495.62 367.17ZM495.65 252.9C495.65 255.53 493.51 257.67 490.88 257.67C488.25 257.67 486.11 255.53 486.11 252.9C486.11 250.27 488.25 248.13 490.88 248.13C493.51 248.13 495.65 250.27 495.65 252.9Z" fill="#F52525"/>
<path d="M512.95 249.28C513.43 249.28 513.89 249.23 514.34 249.14L530.37 274.65C530.4 299.56 530.39 318.95 530.37 337.42H535.46C535.5 318.77 535.5 299.18 535.48 273.91V273.18L518.6 246.34C519.41 245.22 519.87 243.84 519.87 242.36C519.87 238.55 516.77 235.45 512.96 235.45C509.15 235.45 506.04 238.55 506.04 242.36C506.04 246.17 509.14 249.28 512.96 249.28H512.95ZM512.95 239.02C512.95 239.02 513.01 239.02 513.04 239.02C513.42 239.02 513.79 239.1 514.13 239.23C515.39 239.7 516.29 240.93 516.29 242.35C516.29 242.45 516.29 242.55 516.27 242.64C516.13 244.33 514.74 245.65 513.04 245.69C513.01 245.7 512.98 245.7 512.95 245.7C511.1 245.7 509.6 244.2 509.6 242.35C509.6 240.5 511.1 239.01 512.95 239.01V239.02Z" fill="#F52525"/>
<path d="M444.06 396.91L470.27 436.87L474.53 434.07L449.15 395.38V234.64L483.58 185.3C484.41 185.57 485.3 185.71 486.22 185.71C490.99 185.71 494.87 181.83 494.87 177.06C494.87 172.29 490.99 168.41 486.22 168.41C481.45 168.41 477.57 172.29 477.57 177.06C477.57 179.06 478.26 180.9 479.41 182.37L444.06 233.03V396.9V396.91ZM486.22 173.53C488.18 173.53 489.77 175.12 489.77 177.08C489.77 179.04 488.18 180.63 486.22 180.63C484.26 180.63 482.67 179.04 482.67 177.08C482.67 175.12 484.26 173.53 486.22 173.53Z" fill="#F52525"/>
<path d="M475.13 227.93C470.63 233.85 465.97 239.97 461.58 246.55L461.15 247.19V247.96C461.15 286.27 461.15 338.49 461.12 379.02C457.59 380.11 455.01 383.4 455.01 387.28C455.01 392.05 458.89 395.93 463.66 395.93C468.43 395.93 472.31 392.05 472.31 387.28C472.31 383.4 469.74 380.11 466.22 379.02C466.25 338.76 466.25 286.97 466.25 248.73C470.43 242.51 474.88 236.67 479.19 231.01C485.23 223.07 491.47 214.86 497.04 205.56L492.67 202.94C487.25 212 481.09 220.09 475.14 227.92L475.13 227.93ZM463.67 390.84C461.71 390.84 460.12 389.25 460.12 387.29C460.12 385.33 461.71 383.74 463.67 383.74C465.63 383.74 467.22 385.33 467.22 387.29C467.22 389.25 465.63 390.84 463.67 390.84Z" fill="#F52525"/>
<path d="M92.09 435.09C92.07 476.23 92.07 516.21 92.08 546.45H96.67C96.67 516.21 96.67 476.23 96.68 435.09H92.09Z" fill="#F52525"/>
<path d="M186.69 405.4C186.67 446.54 186.67 486.52 186.68 516.76H191.27C191.27 486.52 191.27 446.54 191.28 405.4H186.69Z" fill="#F52525"/>
<path d="M160.89 540.47C161.65 518.27 162.24 500.46 162.77 483.56C167.31 482.58 170.8 478.61 170.96 473.76C171.15 468.04 166.65 463.23 160.93 463.04C158.16 462.93 155.52 463.94 153.5 465.83C151.48 467.72 150.31 470.29 150.22 473.06C150.06 477.89 153.24 482.05 157.68 483.35C157.11 500.45 156.2 517.83 155.41 540.45H160.9L160.89 540.47ZM155.31 473.24C155.36 471.83 155.95 470.52 156.98 469.56C157.97 468.64 159.24 468.14 160.58 468.14C160.64 468.14 160.7 468.14 160.76 468.14C163.67 468.24 165.96 470.68 165.86 473.59C165.76 476.5 163.32 478.77 160.41 478.69C157.5 478.59 155.21 476.15 155.31 473.24Z" fill="#F52525"/>
<path d="M251.01 528.33C251.74 507.03 252.31 489.79 252.82 473.51C257.14 472.39 260.41 468.55 260.56 463.87C260.75 458.18 256.28 453.4 250.59 453.21C247.83 453.1 245.21 454.1 243.2 455.99C241.19 457.87 240.03 460.43 239.94 463.18C239.78 468.12 243.13 472.37 247.75 473.53C247.18 489.9 246.32 506.71 245.55 528.33H251.01ZM245 463.35C245.05 461.95 245.64 460.65 246.66 459.69C247.64 458.77 248.91 458.27 250.24 458.27C250.3 458.27 250.36 458.27 250.42 458.27C253.31 458.37 255.59 460.8 255.49 463.69C255.39 466.58 252.97 468.84 250.07 468.76C247.18 468.66 244.9 466.23 245 463.34V463.35Z" fill="#F52525"/>
<path d="M467.98 528.03C468.71 506.73 469.28 489.49 469.79 473.21C474.11 472.09 477.38 468.25 477.53 463.57C477.72 457.88 473.25 453.1 467.56 452.91C464.8 452.8 462.18 453.8 460.17 455.69C458.16 457.57 457 460.13 456.91 462.88C456.75 467.82 460.1 472.07 464.72 473.23C464.15 489.6 463.29 506.41 462.52 528.03H467.98ZM461.97 463.05C462.02 461.65 462.61 460.35 463.63 459.39C464.61 458.47 465.88 457.97 467.21 457.97C467.27 457.97 467.33 457.97 467.39 457.97C470.28 458.07 472.56 460.5 472.46 463.39C472.36 466.28 469.94 468.54 467.04 468.46C464.15 468.36 461.87 465.93 461.97 463.04V463.05Z" fill="#F52525"/>
<path d="M524.4 187.49L524.98 188.2C531.35 195.89 537.32 204.11 543.1 212.06C549.4 220.72 555.9 229.67 562.91 237.92C562.91 260.44 562.86 282.46 562.81 303.77C562.78 317.58 562.75 331.72 562.73 346.07H567.83C567.85 331.72 567.88 317.59 567.91 303.78C567.96 282.17 568.01 259.83 568.01 236.98V236.04L567.4 235.32C560.29 227.03 553.65 217.9 547.23 209.06C541.58 201.29 535.75 193.26 529.5 185.66C529.5 148.64 529.5 110.38 529.47 72.66H524.37C524.4 110.69 524.4 149.26 524.4 186.57V187.49Z" fill="#F52525"/>
<path d="M565.46 184.14C571.18 184.14 575.83 179.49 575.83 173.77C575.83 168.89 572.45 164.8 567.92 163.69C568.01 117.53 567.98 76.25 567.81 37.6L562.71 37.62C562.88 76.28 562.92 117.56 562.82 163.73C558.37 164.9 555.08 168.96 555.08 173.77C555.08 179.49 559.73 184.14 565.46 184.14ZM565.46 168.49C568.37 168.49 570.74 170.86 570.74 173.77C570.74 176.68 568.37 179.05 565.46 179.05C562.55 179.05 560.18 176.68 560.18 173.77C560.18 170.86 562.55 168.49 565.46 168.49Z" fill="#F52525"/>
<path d="M886.95 213.34C886.95 254.06 886.95 288.01 886.97 319.28C882.33 320.43 878.89 324.62 878.89 329.6C878.89 335.46 883.66 340.23 889.53 340.23C895.4 340.23 900.16 335.46 900.16 329.6C900.16 324.62 896.71 320.42 892.07 319.28C892.04 288.02 892.04 254.07 892.05 213.36C896.56 212.23 899.9 208.14 899.9 203.29C899.9 197.57 895.25 192.91 889.53 192.91C883.81 192.91 879.15 197.57 879.15 203.29C879.15 208.12 882.47 212.19 886.95 213.34ZM895.06 329.6C895.06 332.65 892.58 335.14 889.53 335.14C886.48 335.14 883.99 332.65 883.99 329.6C883.99 326.55 886.48 324.06 889.53 324.06C892.58 324.06 895.06 326.55 895.06 329.6ZM889.53 198.01C892.44 198.01 894.81 200.38 894.81 203.29C894.81 205.29 893.69 207.03 892.05 207.92C891.49 208.23 890.86 208.44 890.2 208.53C889.98 208.56 889.76 208.57 889.53 208.57C888.59 208.57 887.71 208.32 886.95 207.89C885.34 206.99 884.25 205.26 884.25 203.29C884.25 200.38 886.62 198.01 889.53 198.01Z" fill="#F52525"/>
<path d="M603.81 203.29C603.8 249.53 603.81 287.1 603.83 321.52H608.93C608.91 287.1 608.9 249.53 608.91 203.29H603.81Z" fill="#F52525"/>
<path d="M381.81 501.36C381.81 537.19 381.83 571.26 381.86 604.2H386.96C386.93 571.26 386.91 537.2 386.91 501.36H381.81Z" fill="#F52525"/>
<path d="M599.46 167.39H599.81C605.38 167.39 609.99 162.96 610.18 157.36C610.28 154.35 609.08 151.6 607.09 149.64L617.98 133.52L618.01 132.79C618.84 108.55 619.47 89.53 620.04 71.55C624.58 70.57 628.07 66.6 628.23 61.75C628.42 56.03 623.92 51.23 618.2 51.04C615.43 50.93 612.79 51.94 610.77 53.83C608.74 55.72 607.58 58.29 607.48 61.06C607.32 65.89 610.5 70.07 614.94 71.37C614.38 89.17 613.76 107.98 612.94 131.88L602.69 147.04C601.88 146.81 601.03 146.67 600.15 146.64C597.38 146.54 594.74 147.54 592.72 149.44C590.69 151.33 589.53 153.9 589.44 156.67C589.25 162.39 593.74 167.2 599.46 167.39ZM612.58 61.23C612.63 59.82 613.22 58.52 614.25 57.55C615.23 56.63 616.51 56.13 617.85 56.13H618.03C620.94 56.23 623.23 58.67 623.13 61.58C623.04 64.49 620.59 66.76 617.68 66.68C614.77 66.59 612.48 64.14 612.58 61.23ZM596.2 153.16C597.12 152.31 598.27 151.82 599.5 151.75C599.6 151.74 599.7 151.74 599.8 151.74H599.98C601.71 151.8 603.22 152.69 604.13 154.01C604.77 154.91 605.12 156.01 605.08 157.19C604.99 160.1 602.55 162.37 599.63 162.29C596.72 162.2 594.43 159.75 594.53 156.84C594.58 155.43 595.17 154.12 596.2 153.16Z" fill="#F52525"/>
<path d="M789.76 283.43C789.74 313.68 789.74 343.07 789.75 365.3H794.85C794.85 343.07 794.85 313.67 794.86 283.43H789.76Z" fill="#F52525"/>
<path d="M729.3 155.16C729.3 147.65 723.19 141.54 715.68 141.54C708.17 141.54 702.06 147.65 702.06 155.16C702.06 161.8 706.84 167.35 713.15 168.54C713.27 253.47 713.29 343.7 713.22 452.22H718.32C718.39 343.69 718.37 253.47 718.25 168.53C724.54 167.33 729.3 161.79 729.3 155.16ZM715.68 163.68C710.98 163.68 707.16 159.86 707.16 155.16C707.16 150.46 710.98 146.64 715.68 146.64C720.38 146.64 724.2 150.46 724.2 155.16C724.2 159.86 720.38 163.68 715.68 163.68Z" fill="#F52525"/>
<path d="M869.31 184.14C875.03 184.14 879.69 179.49 879.69 173.77C879.69 168.9 876.31 164.79 871.77 163.69C871.86 117.53 871.83 76.25 871.66 37.6L866.56 37.62C866.73 76.28 866.77 117.56 866.67 163.72C862.22 164.89 858.93 168.95 858.93 173.76C858.93 179.48 863.59 184.13 869.31 184.13V184.14ZM869.31 168.49C872.22 168.49 874.59 170.86 874.59 173.77C874.59 176.68 872.22 179.05 869.31 179.05C866.4 179.05 864.03 176.68 864.03 173.77C864.03 170.86 866.4 168.49 869.31 168.49Z" fill="#F52525"/>
<path d="M656.91 168.49C662.63 168.49 667.29 163.83 667.29 158.11C667.29 153.24 663.91 149.13 659.37 148.03C659.46 101.88 659.43 60.6 659.26 21.94L654.16 21.96C654.33 60.62 654.37 101.9 654.27 148.06C649.82 149.23 646.53 153.29 646.53 158.1C646.53 163.82 651.19 168.48 656.91 168.48V168.49ZM656.91 152.83C659.82 152.83 662.19 155.2 662.19 158.11C662.19 161.02 659.82 163.39 656.91 163.39C654 163.39 651.63 161.02 651.63 158.11C651.63 155.2 654 152.83 656.91 152.83Z" fill="#F52525"/>
<path d="M828.22 74.9C828.25 112.2 828.25 150 828.25 186.58V187.49L828.84 188.2C835.2 195.89 841.18 204.11 846.96 212.06C853.25 220.72 859.76 229.67 866.76 237.92C866.76 260.44 866.71 282.46 866.66 303.77C866.63 316.62 866.61 329.74 866.58 343.07H871.67C871.69 329.75 871.72 316.63 871.75 303.78C871.8 282.17 871.85 259.83 871.85 236.98V236.04L871.24 235.32C864.13 227.03 857.49 217.9 851.07 209.06C845.42 201.29 839.59 193.27 833.34 185.66C833.34 149.36 833.34 111.88 833.31 74.88C837.79 73.73 841.1 69.66 841.1 64.83C841.1 59.11 836.45 54.46 830.72 54.46C824.99 54.46 820.35 59.11 820.35 64.83C820.35 69.69 823.7 73.78 828.21 74.9H828.22ZM830.73 59.55C833.64 59.55 836.01 61.92 836.01 64.83C836.01 67.74 833.64 70.11 830.73 70.11C827.82 70.11 825.45 67.75 825.45 64.83C825.45 61.91 827.82 59.55 830.73 59.55Z" fill="#F52525"/>
<path d="M789.78 111.91C789.75 140.68 789.78 166.34 789.8 195.92V207.13C786.87 214.21 751.7 298.87 751.62 299.05L751.43 299.52V300.02C751.23 354.94 751.24 408.96 751.28 454.55H756.38C756.34 409.1 756.33 355.28 756.53 300.54C757.48 298.26 762.96 285.07 794.72 208.61L794.92 208.14V195.92C794.88 166.34 794.86 140.67 794.89 111.91C801.16 110.69 805.91 105.16 805.91 98.54C805.91 91.03 799.8 84.92 792.29 84.92C784.78 84.92 778.67 91.03 778.67 98.54C778.67 105.2 783.47 110.75 789.79 111.92L789.78 111.91ZM792.28 90.01C796.98 90.01 800.8 93.83 800.8 98.53C800.8 103.23 796.98 107.05 792.28 107.05C787.58 107.05 783.75 103.23 783.75 98.53C783.75 93.83 787.58 90.01 792.28 90.01Z" fill="#F52525"/>
<path d="M751.41 45.79C751.25 101.51 751.22 161.89 751.34 230.3H756.44C756.32 161.8 756.34 101.36 756.51 45.58C759.78 44.4 762.1 41.28 762.1 37.61C762.1 32.94 758.3 29.13 753.62 29.13C748.94 29.13 745.15 32.94 745.15 37.61C745.15 41.52 747.81 44.82 751.41 45.79ZM753.62 34.23C755.49 34.23 757.01 35.75 757.01 37.61C757.01 39.47 755.49 41 753.62 41C751.75 41 750.24 39.48 750.24 37.61C750.24 35.74 751.76 34.23 753.62 34.23Z" fill="#F52525"/>
<path d="M667.92 199.37C661.5 208.2 654.86 217.34 647.75 225.63L647.14 226.35V227.29C647.14 250.14 647.19 272.48 647.24 294.08C647.29 314.58 647.33 335.78 647.34 357.37H652.53L652.44 357.23C652.44 335.68 652.39 314.54 652.34 294.07C652.29 272.77 652.24 250.74 652.24 228.23C659.25 219.98 665.75 211.03 672.05 202.37C677.83 194.42 683.8 186.2 690.17 178.51L690.76 177.8V176.88C690.76 140.3 690.76 102.5 690.79 65.2C695.3 64.08 698.66 59.99 698.66 55.14C698.66 49.42 694 44.76 688.28 44.76C682.56 44.76 677.9 49.42 677.9 55.14C677.9 59.97 681.22 64.03 685.69 65.18C685.66 102.18 685.66 139.66 685.66 175.96C679.41 183.57 673.58 191.59 667.93 199.36L667.92 199.37ZM682.99 55.14C682.99 52.23 685.36 49.86 688.27 49.86C691.18 49.86 693.55 52.23 693.55 55.14C693.55 58.05 691.18 60.42 688.27 60.42C685.36 60.42 682.99 58.05 682.99 55.14Z" fill="#F52525"/>
<path d="M709.07 124.29C709.19 124.29 709.3 124.29 709.42 124.29C712.06 124.29 714.56 123.3 716.5 121.49C717.51 120.55 718.31 119.43 718.87 118.21C719.42 116.98 719.73 115.65 719.78 114.26C719.87 111.49 718.86 108.93 717.15 107.01L727.51 91.69L727.53 90.96C727.9 80.12 727.76 69.19 727.63 58.63C727.53 50.53 727.43 42.19 727.56 33.91C729.26 33.5 730.84 32.65 732.16 31.42C734.18 29.53 735.35 26.96 735.44 24.19C735.63 18.47 731.13 13.66 725.41 13.47C719.69 13.27 714.89 17.78 714.7 23.5C714.54 28.44 717.87 32.7 722.46 33.89C722.34 42.22 722.43 50.58 722.53 58.69C722.66 68.95 722.8 79.56 722.46 90.05L712.92 104.15C711.93 103.79 710.86 103.58 709.75 103.54C706.98 103.44 704.34 104.44 702.31 106.34C700.29 108.23 699.12 110.8 699.03 113.57C698.84 119.29 703.34 124.09 709.06 124.28L709.07 124.29ZM719.79 23.68C719.89 20.83 722.24 18.58 725.07 18.58H725.24C728.09 18.68 730.35 21.03 730.35 23.86V24.03C730.3 25.44 729.71 26.75 728.68 27.71C727.65 28.67 726.3 29.17 724.89 29.13C721.98 29.03 719.7 26.59 719.79 23.68ZM705.81 110.07C706.79 109.15 708.06 108.64 709.41 108.64C709.47 108.64 709.53 108.65 709.59 108.65C712.5 108.74 714.79 111.19 714.69 114.1C714.64 115.51 714.05 116.82 713.02 117.78C711.99 118.74 710.65 119.24 709.24 119.2C706.33 119.1 704.04 116.66 704.14 113.75C704.18 112.34 704.78 111.03 705.81 110.07Z" fill="#F52525"/>
<path d="M649.27 632.35C649.25 678.03 649.25 722.42 649.26 755.99H654.36C654.36 722.42 654.36 678.03 654.37 632.35H649.27Z" fill="#F52525"/>
<path d="M553.3 744.33H558.4C558.4 710.75 558.4 666.35 558.41 620.69H553.31C553.29 666.34 553.29 710.75 553.3 744.33Z" fill="#F52525"/>
<path d="M649.23 408.48H654.33C654.33 397.04 654.33 384.34 654.33 370.76H649.23C649.23 384.34 649.23 397.04 649.23 408.48Z" fill="#F52525"/>
<path d="M731.16 386.53L726.06 386.55C726.23 425.21 726.27 466.49 726.17 512.67C721.72 513.84 718.43 517.88 718.43 522.69C718.43 528.41 723.09 533.07 728.81 533.07C734.53 533.07 739.19 528.41 739.19 522.69C739.19 517.82 735.81 513.73 731.28 512.62C731.37 466.46 731.34 425.18 731.17 386.52L731.16 386.53ZM734.09 522.7C734.09 525.61 731.72 527.98 728.81 527.98C725.9 527.98 723.53 525.61 723.53 522.7C723.53 519.79 725.9 517.42 728.81 517.42C731.72 517.42 734.09 519.79 734.09 522.7Z" fill="#F52525"/>
<path d="M575.19 490.47C567.68 490.47 561.57 496.58 561.57 504.09C561.57 510.74 566.36 516.28 572.66 517.47C572.78 602.41 572.8 692.63 572.73 801.16H577.83C577.9 692.63 577.88 602.41 577.76 517.47C584.04 516.26 588.81 510.73 588.81 504.1C588.81 496.59 582.7 490.48 575.19 490.48V490.47ZM575.19 512.61C570.49 512.61 566.67 508.79 566.67 504.09C566.67 499.39 570.49 495.57 575.19 495.57C579.89 495.57 583.71 499.39 583.71 504.09C583.71 508.79 579.89 512.61 575.19 512.61Z" fill="#F52525"/>
<path d="M706.73 269.27C706.73 263.55 702.07 258.89 696.35 258.89C690.63 258.89 685.98 263.55 685.98 269.27C685.98 274.11 689.31 278.19 693.8 279.33C693.8 322.3 693.8 363.68 693.8 395.4H698.9C698.89 363.68 698.89 322.3 698.9 279.33C703.39 278.19 706.73 274.11 706.73 269.27ZM696.35 274.55C695.43 274.55 694.56 274.32 693.81 273.9C692.18 273 691.07 271.26 691.07 269.27C691.07 266.36 693.44 263.99 696.35 263.99C699.26 263.99 701.63 266.36 701.63 269.27C701.63 271.25 700.53 272.99 698.91 273.89C698.15 274.31 697.28 274.55 696.35 274.55Z" fill="#F52525"/>
<path d="M655.02 306.45C655.02 312.18 659.68 316.83 665.4 316.83C671.12 316.83 675.78 312.18 675.78 306.45C675.78 301.38 672.12 297.15 667.3 296.26C667.3 280.76 667.3 264.07 667.31 243.68L694.34 200.67L690.03 197.96L662.21 242.21V242.94C662.19 263.81 662.19 280.8 662.21 296.59C658.04 297.93 655.02 301.84 655.02 306.45ZM662.21 302.26C663.1 301.57 664.2 301.17 665.4 301.17C666.07 301.17 666.72 301.3 667.31 301.53C669.28 302.3 670.68 304.22 670.68 306.45C670.68 309.37 668.31 311.73 665.4 311.73C662.49 311.73 660.12 309.37 660.12 306.45C660.12 304.74 660.94 303.22 662.21 302.26Z" fill="#F52525"/>
<path d="M506.04 507.04C506.04 512.76 510.69 517.42 516.42 517.42C522.15 517.42 526.8 512.76 526.8 507.04C526.8 502.17 523.42 498.08 518.89 496.97C518.98 450.81 518.95 409.54 518.78 370.87L513.68 370.89C513.85 409.56 513.89 450.84 513.79 497.01C509.34 498.18 506.05 502.22 506.05 507.04H506.04ZM521.7 507.04C521.7 509.95 519.33 512.32 516.42 512.32C513.51 512.32 511.14 509.95 511.14 507.04C511.14 504.13 513.51 501.76 516.42 501.76C519.33 501.76 521.7 504.13 521.7 507.04Z" fill="#F52525"/>
<path d="M649.29 460.84C649.26 489.6 649.29 515.27 649.31 544.85V556.06C646.38 563.14 611.21 647.8 611.13 647.98L610.94 648.45V648.95C610.74 703.02 610.75 756.19 610.79 801.33C607.36 802.42 604.87 805.63 604.87 809.41C604.87 814.09 608.67 817.89 613.35 817.89C618.03 817.89 621.83 814.09 621.83 809.41C621.83 805.62 619.33 802.4 615.89 801.32C615.85 756.33 615.84 703.36 616.04 649.47C616.99 647.19 622.47 634 654.23 557.54L654.43 557.07V544.85C654.39 515.26 654.37 489.6 654.4 460.83C660.67 459.61 665.41 454.09 665.41 447.47C665.41 439.96 659.3 433.85 651.79 433.85C644.28 433.85 638.17 439.96 638.17 447.47C638.17 454.13 642.98 459.67 649.3 460.85L649.29 460.84ZM613.34 812.79C611.48 812.79 609.96 811.27 609.96 809.41C609.96 807.55 611.48 806.03 613.34 806.03C615.2 806.03 616.72 807.55 616.72 809.41C616.72 811.27 615.2 812.79 613.34 812.79ZM651.79 438.94C656.49 438.94 660.31 442.76 660.31 447.46C660.31 452.16 656.49 455.98 651.79 455.98C647.09 455.98 643.27 452.16 643.27 447.46C643.27 442.76 647.09 438.94 651.79 438.94Z" fill="#F52525"/>
<path d="M575.18 827.76C570.5 827.76 566.7 831.56 566.7 836.24C566.7 840.03 569.2 843.25 572.64 844.33V927.97H577.73V844.32C581.17 843.23 583.66 840.02 583.66 836.24C583.66 831.56 579.86 827.76 575.18 827.76ZM575.18 839.62C573.32 839.62 571.8 838.1 571.8 836.24C571.8 834.38 573.32 832.86 575.18 832.86C577.04 832.86 578.56 834.38 578.56 836.24C578.56 838.1 577.04 839.62 575.18 839.62Z" fill="#F52525"/>
<path d="M610.91 394.71C610.75 450.43 610.72 510.81 610.84 579.22H615.94C615.82 510.72 615.84 450.28 616.01 394.5C619.27 393.32 621.61 390.2 621.61 386.54C621.61 381.86 617.81 378.06 613.13 378.06C608.45 378.06 604.65 381.86 604.65 386.54C604.65 390.45 607.31 393.74 610.91 394.72V394.71ZM613.12 383.15C614.98 383.15 616.5 384.67 616.5 386.53C616.5 388.39 614.98 389.91 613.12 389.91C611.26 389.91 609.74 388.39 609.74 386.53C609.74 384.67 611.26 383.15 613.12 383.15Z" fill="#F52525"/>
<path d="M654.37 912.4C654.35 878.59 654.34 841.65 654.35 796.41H649.25C649.24 841.66 649.25 878.6 649.27 912.41C644.64 913.56 641.2 917.74 641.2 922.72C641.2 928.58 645.97 933.35 651.83 933.35C657.69 933.35 662.46 928.58 662.46 922.72C662.46 917.73 659 913.55 654.36 912.41L654.37 912.4ZM651.83 928.25C648.78 928.25 646.29 925.77 646.29 922.71C646.29 919.65 648.77 917.17 651.83 917.17C654.89 917.17 657.37 919.65 657.37 922.71C657.37 925.77 654.89 928.25 651.83 928.25Z" fill="#F52525"/>
<path d="M772.28 668.21C772.26 634.4 772.25 597.46 772.26 552.22H767.16C767.15 597.47 767.16 634.41 767.18 668.22C762.55 669.37 759.11 673.55 759.11 678.53C759.11 684.39 763.88 689.16 769.74 689.16C775.6 689.16 780.37 684.39 780.37 678.53C780.37 673.54 776.91 669.36 772.27 668.22L772.28 668.21ZM769.74 684.06C766.69 684.06 764.2 681.58 764.2 678.52C764.2 675.46 766.68 672.98 769.74 672.98C772.8 672.98 775.28 675.46 775.28 678.52C775.28 681.58 772.8 684.06 769.74 684.06Z" fill="#F52525"/>
<path d="M496.47 669.17C496.47 663.73 492.36 659.24 487.09 658.62C487.07 627.41 487.06 593.54 487.09 552.92C491.59 551.79 494.92 547.7 494.92 542.86C494.92 537.14 490.27 532.49 484.54 532.49C478.81 532.49 474.17 537.14 474.17 542.86C474.17 547.7 477.5 551.78 481.99 552.92C481.99 593.82 481.99 627.88 482.01 659.27C478.04 660.81 475.21 664.67 475.21 669.18C475.21 675.04 479.98 679.81 485.84 679.81C491.7 679.81 496.47 675.04 496.47 669.18V669.17ZM479.25 542.86C479.25 539.95 481.62 537.58 484.53 537.58C487.44 537.58 489.81 539.95 489.81 542.86C489.81 544.84 488.71 546.58 487.08 547.48C486.32 547.9 485.45 548.14 484.53 548.14C483.61 548.14 482.74 547.9 481.98 547.48C480.35 546.58 479.25 544.84 479.25 542.86ZM480.3 669.17C480.3 666.12 482.78 663.63 485.84 663.63C488.9 663.63 491.38 666.11 491.38 669.17C491.38 672.23 488.9 674.71 485.84 674.71C482.78 674.71 480.3 672.23 480.3 669.17Z" fill="#F52525"/>
<path d="M692.8 960.59C692.85 903.85 692.86 843.77 692.82 777L731.17 717.34V716.59C731.17 694.8 731.22 673.4 731.27 652.71C731.32 631.1 731.37 608.76 731.37 585.91V584.97L730.76 584.25C723.65 575.96 717.01 566.83 710.59 557.99C704.94 550.22 699.11 542.19 692.86 534.59C692.86 497.57 692.86 459.31 692.83 421.59H687.73C687.76 459.62 687.76 498.19 687.76 535.5V536.42L688.35 537.13C694.72 544.82 700.69 553.04 706.47 560.99C712.77 569.65 719.27 578.6 726.28 586.85C726.28 609.37 726.23 631.39 726.18 652.7C726.13 673.16 726.09 694.3 726.08 715.85L687.73 775.51V776.26C687.77 843.32 687.76 903.65 687.71 960.59C683.07 961.73 679.61 965.92 679.61 970.9C679.61 976.76 684.38 981.53 690.24 981.53C696.1 981.53 700.87 976.76 700.87 970.9C700.87 965.92 697.43 961.74 692.8 960.59ZM690.24 976.43C687.19 976.43 684.7 973.95 684.7 970.89C684.7 967.83 687.18 965.35 690.24 965.35C693.3 965.35 695.78 967.83 695.78 970.89C695.78 973.95 693.3 976.43 690.24 976.43Z" fill="#F52525"/>
<path d="M550.31 950.89C550.26 893.95 550.25 833.63 550.29 766.56V765.81L511.94 706.15C511.94 684.6 511.89 663.46 511.84 642.99C511.79 621.69 511.74 599.66 511.74 577.15C518.75 568.9 525.25 559.95 531.55 551.29C537.33 543.34 543.3 535.12 549.67 527.43L550.26 526.72V525.8C550.26 489.22 550.26 451.42 550.29 414.12C554.8 412.99 558.16 408.92 558.16 404.06C558.16 398.34 553.51 393.68 547.78 393.68C542.05 393.68 537.4 398.34 537.4 404.06C537.4 408.89 540.72 412.94 545.19 414.1C545.16 451.1 545.16 488.59 545.16 524.89C538.91 532.5 533.08 540.52 527.43 548.29C521.01 557.12 514.37 566.26 507.26 574.55L506.65 575.27V576.21C506.65 599.06 506.7 621.4 506.75 643C506.8 663.7 506.85 685.1 506.85 706.9V707.65L545.2 767.31C545.16 834.09 545.17 894.17 545.22 950.9C540.59 952.05 537.15 956.23 537.15 961.21C537.15 967.07 541.92 971.84 547.78 971.84C553.64 971.84 558.41 967.07 558.41 961.21C558.41 956.22 554.95 952.04 550.31 950.9V950.89ZM542.49 404.06C542.49 401.15 544.86 398.78 547.77 398.78C550.68 398.78 553.05 401.15 553.05 404.06C553.05 406.97 550.68 409.34 547.77 409.34C544.86 409.34 542.49 406.97 542.49 404.06ZM547.77 966.74C544.72 966.74 542.23 964.26 542.23 961.2C542.23 958.14 544.71 955.66 547.77 955.66C550.83 955.66 553.31 958.14 553.31 961.2C553.31 964.26 550.83 966.74 547.77 966.74Z" fill="#F52525"/>
<path d="M692.82 622.84V622.11L665 577.86L660.68 580.57L687.71 623.57C687.73 647.49 687.73 666.32 687.71 684.13C683.23 685.28 679.91 689.34 679.91 694.17C679.91 699.89 684.56 704.55 690.29 704.55C696.02 704.55 700.67 699.9 700.67 694.17C700.67 689.32 697.32 685.24 692.81 684.11C692.84 666.12 692.84 647.09 692.81 622.83L692.82 622.84ZM695.57 694.18C695.57 697.09 693.2 699.46 690.29 699.46C687.38 699.46 685.01 697.09 685.01 694.18C685.01 691.27 687.38 688.9 690.29 688.9C693.2 688.9 695.57 691.27 695.57 694.18Z" fill="#F52525"/>
<path d="M553.85 549.6L549.53 546.89L521.72 591.14V591.87C521.69 616.14 521.7 635.16 521.72 653.15C517.21 654.28 513.86 658.35 513.86 663.2C513.86 668.92 518.51 673.58 524.24 673.58C529.97 673.58 534.62 668.92 534.62 663.2C534.62 658.37 531.3 654.31 526.82 653.16C526.79 635.35 526.79 616.52 526.82 592.6L553.85 549.6ZM529.52 663.2C529.52 666.11 527.15 668.48 524.24 668.48C521.33 668.48 518.96 666.11 518.96 663.2C518.96 660.29 521.33 657.92 524.24 657.92C527.15 657.92 529.52 660.29 529.52 663.2Z" fill="#F52525"/>
<path d="M621.3 846.83C618.53 846.72 615.89 847.73 613.87 849.62C611.85 851.51 610.68 854.08 610.59 856.85C610.43 861.68 613.61 865.84 618.05 867.14C617.49 884.95 616.87 903.76 616.05 927.67L587.6 969.75L591.82 972.6L621.09 929.3L621.12 928.57C621.95 904.32 622.58 885.31 623.15 867.33C627.69 866.35 631.18 862.39 631.34 857.53C631.53 851.81 627.03 847 621.31 846.81L621.3 846.83ZM620.78 862.48C617.87 862.38 615.58 859.94 615.68 857.03C615.73 855.62 616.32 854.31 617.35 853.35C618.34 852.43 619.61 851.93 620.95 851.93C621.01 851.93 621.07 851.93 621.13 851.93C624.04 852.03 626.33 854.47 626.23 857.38C626.13 860.29 623.69 862.56 620.78 862.48Z" fill="#F52525"/>
<path d="M781.37 481.72C782.2 457.48 782.83 438.46 783.4 420.48C787.94 419.5 791.42 415.53 791.58 410.69C791.77 404.97 787.27 400.16 781.55 399.97C778.78 399.86 776.14 400.87 774.12 402.76C772.1 404.65 770.93 407.22 770.84 409.99C770.68 414.82 773.86 418.98 778.3 420.28C777.74 438.08 777.12 456.9 776.3 480.81L766.05 495.97C765.24 495.74 764.39 495.6 763.51 495.57C760.74 495.47 758.1 496.47 756.08 498.37C754.05 500.26 752.89 502.83 752.8 505.6C752.61 511.32 757.1 516.13 762.82 516.32H763.17C768.74 516.32 773.35 511.89 773.54 506.29C773.64 503.28 772.44 500.53 770.45 498.57L781.34 482.45L781.37 481.72ZM768.44 506.12C768.35 509.03 765.91 511.3 762.99 511.22C760.08 511.13 757.79 508.68 757.89 505.77C757.94 504.36 758.53 503.05 759.56 502.09C760.48 501.24 761.63 500.75 762.86 500.68C762.96 500.67 763.06 500.67 763.16 500.67H763.34C765.07 500.73 766.58 501.62 767.49 502.94C768.13 503.84 768.48 504.94 768.44 506.12ZM775.94 410.16C775.99 408.75 776.58 407.44 777.61 406.48C778.6 405.56 779.87 405.06 781.21 405.06C781.27 405.06 781.33 405.06 781.39 405.06C784.3 405.16 786.59 407.6 786.49 410.51C786.39 413.42 783.95 415.69 781.04 415.61C778.13 415.51 775.84 413.07 775.94 410.16Z" fill="#F52525"/>
<path d="M568.93 473.23C571.57 473.23 574.07 472.24 576.01 470.43C578.03 468.54 579.2 465.97 579.29 463.2C579.38 460.43 578.37 457.88 576.65 455.96L587.02 440.63L587.05 439.9C587.42 429.06 587.28 418.13 587.15 407.57C587.05 399.47 586.95 391.13 587.08 382.85C588.78 382.43 590.36 381.59 591.68 380.36C593.7 378.47 594.87 375.9 594.96 373.13C595.15 367.41 590.65 362.6 584.93 362.41C579.21 362.2 574.4 366.72 574.21 372.44C574.05 377.38 577.38 381.63 581.98 382.82C581.85 391.15 581.95 399.52 582.05 407.63C582.18 417.89 582.32 428.5 581.98 438.99L572.44 453.1C571.45 452.74 570.38 452.52 569.27 452.49C566.5 452.39 563.86 453.39 561.84 455.28C559.82 457.17 558.65 459.74 558.56 462.51C558.37 468.23 562.87 473.04 568.59 473.23C568.71 473.23 568.83 473.23 568.94 473.23H568.93ZM579.3 372.61C579.39 369.76 581.74 367.51 584.57 367.51C584.63 367.51 584.69 367.51 584.75 367.51C587.66 367.61 589.95 370.05 589.85 372.96C589.8 374.37 589.21 375.68 588.18 376.64C587.15 377.6 585.81 378.1 584.4 378.06C581.49 377.96 579.2 375.52 579.3 372.61ZM563.64 462.68C563.69 461.27 564.28 459.96 565.31 459C566.3 458.08 567.57 457.58 568.91 457.58C568.97 457.58 569.03 457.58 569.09 457.58C572 457.68 574.29 460.12 574.19 463.03C574.14 464.44 573.55 465.75 572.52 466.71C571.49 467.67 570.15 468.17 568.74 468.13C565.83 468.03 563.54 465.59 563.64 462.68Z" fill="#F52525"/>
<path d="M343.27 545.87C343.39 545.87 343.51 545.87 343.62 545.87C346.26 545.87 348.76 544.88 350.7 543.07C352.72 541.18 353.89 538.61 353.98 535.84C354.07 533.07 353.06 530.52 351.34 528.6L361.71 513.27L361.73 512.54C362.1 501.7 361.96 490.77 361.83 480.21C361.73 472.11 361.63 463.77 361.76 455.49C363.46 455.07 365.04 454.23 366.36 453C368.38 451.11 369.55 448.54 369.64 445.77C369.83 440.05 365.33 435.24 359.61 435.05C353.89 434.84 349.08 439.36 348.89 445.08C348.73 450.02 352.06 454.27 356.66 455.46C356.53 463.79 356.63 472.16 356.73 480.27C356.86 490.53 357 501.14 356.66 511.63L347.12 525.74C346.13 525.38 345.06 525.16 343.95 525.13C341.18 525.03 338.54 526.03 336.52 527.92C334.5 529.81 333.33 532.38 333.24 535.15C333.05 540.87 337.55 545.68 343.27 545.87ZM353.99 445.25C354.08 442.4 356.43 440.15 359.26 440.15C359.32 440.15 359.38 440.15 359.44 440.15C362.35 440.25 364.64 442.69 364.54 445.6C364.49 447.01 363.9 448.32 362.87 449.28C361.84 450.24 360.5 450.74 359.09 450.7C356.18 450.6 353.89 448.16 353.99 445.25ZM340 531.64C340.99 530.72 342.26 530.22 343.6 530.22C343.66 530.22 343.72 530.22 343.78 530.22C346.69 530.32 348.98 532.76 348.88 535.67C348.83 537.08 348.24 538.39 347.21 539.35C346.18 540.31 344.84 540.81 343.43 540.77C340.52 540.67 338.23 538.23 338.33 535.32C338.38 533.91 338.97 532.6 340 531.64Z" fill="#F52525"/>
<path d="M487.28 805.92C491.48 804.79 494.59 800.96 494.59 796.4C494.59 790.96 490.17 786.54 484.73 786.54C479.29 786.54 474.87 790.96 474.87 796.4C474.87 800.96 477.98 804.79 482.19 805.92C482.18 842.92 482.19 873.32 482.21 901.16C478.01 902.29 474.91 906.12 474.91 910.67C474.91 916.11 479.33 920.53 484.77 920.53C490.21 920.53 494.63 916.11 494.63 910.67C494.63 906.11 491.52 902.27 487.31 901.15C487.29 873.3 487.28 842.91 487.29 805.91L487.28 805.92ZM479.96 796.4C479.96 793.77 482.1 791.63 484.73 791.63C487.36 791.63 489.5 793.77 489.5 796.4C489.5 799.03 487.36 801.17 484.73 801.17C482.1 801.17 479.96 799.03 479.96 796.4ZM489.52 910.67C489.52 913.3 487.38 915.44 484.75 915.44C482.12 915.44 479.98 913.3 479.98 910.67C479.98 908.04 482.12 905.9 484.75 905.9C487.38 905.9 489.52 908.04 489.52 910.67Z" fill="#F52525"/>
<path d="M498.03 720.59C498.03 715.82 494.15 711.94 489.38 711.94C484.61 711.94 480.73 715.82 480.73 720.59C480.73 725.36 484.61 729.24 489.38 729.24C490.3 729.24 491.19 729.09 492.02 728.83L526.45 778.17V938.7L500.5 967.6L504.29 971.01L531.55 940.65V776.57L496.2 725.91C497.35 724.44 498.04 722.6 498.04 720.6L498.03 720.59ZM485.83 720.59C485.83 718.63 487.42 717.04 489.38 717.04C491.34 717.04 492.93 718.63 492.93 720.59C492.93 722.55 491.34 724.14 489.38 724.14C487.42 724.14 485.83 722.55 485.83 720.59Z" fill="#F52525"/>
<path d="M514.03 790.07C509.64 783.48 504.98 777.36 500.48 771.45C494.52 763.62 488.37 755.53 482.95 746.47L478.58 749.09C484.15 758.39 490.39 766.6 496.43 774.54C500.74 780.2 505.19 786.05 509.37 792.26C509.37 830.5 509.37 882.29 509.4 922.55C505.88 923.64 503.31 926.93 503.31 930.81C503.31 935.58 507.19 939.46 511.96 939.46C516.73 939.46 520.61 935.58 520.61 930.81C520.61 926.93 518.04 923.63 514.5 922.55C514.47 882.02 514.47 829.81 514.47 791.49V790.72L514.04 790.08L514.03 790.07ZM511.94 934.36C509.98 934.36 508.39 932.77 508.39 930.81C508.39 928.85 509.98 927.26 511.94 927.26C513.9 927.26 515.49 928.85 515.49 930.81C515.49 932.77 513.9 934.36 511.94 934.36Z" fill="#F52525"/>
<path d="M764.99 796.41C764.99 790.97 760.57 786.55 755.13 786.55C749.69 786.55 745.27 790.97 745.27 796.41C745.27 800.96 748.38 804.8 752.58 805.93C752.59 842.93 752.58 873.32 752.56 901.17C748.35 902.29 745.24 906.13 745.24 910.69C745.24 916.13 749.66 920.55 755.1 920.55C760.54 920.55 764.96 916.13 764.96 910.69C764.96 906.14 761.86 902.31 757.66 901.18C757.68 873.33 757.69 842.93 757.68 805.94C761.89 804.81 765 800.98 765 796.42L764.99 796.41ZM759.86 910.68C759.86 913.31 757.72 915.45 755.09 915.45C752.46 915.45 750.32 913.31 750.32 910.68C750.32 908.05 752.46 905.91 755.09 905.91C757.72 905.91 759.86 908.05 759.86 910.68ZM755.13 801.17C752.5 801.17 750.36 799.03 750.36 796.4C750.36 793.77 752.5 791.63 755.13 791.63C757.76 791.63 759.9 793.77 759.9 796.4C759.9 799.03 757.76 801.17 755.13 801.17Z" fill="#F52525"/>
<path d="M713.4 778.16L747.83 728.82C748.66 729.09 749.55 729.23 750.47 729.23C755.24 729.23 759.12 725.35 759.12 720.58C759.12 715.81 755.24 711.93 750.47 711.93C745.7 711.93 741.82 715.81 741.82 720.58C741.82 722.58 742.51 724.42 743.66 725.89L708.31 776.55V940.42L734.52 980.38L738.78 977.58L713.4 938.89V778.15V778.16ZM750.47 717.04C752.43 717.04 754.02 718.63 754.02 720.59C754.02 722.55 752.43 724.14 750.47 724.14C748.51 724.14 746.92 722.55 746.92 720.59C746.92 718.63 748.51 717.04 750.47 717.04Z" fill="#F52525"/>
<path d="M756.9 746.46C751.48 755.52 745.32 763.61 739.37 771.44C734.87 777.36 730.21 783.48 725.82 790.06L725.39 790.7V791.47C725.39 829.78 725.39 882 725.36 922.53C721.83 923.62 719.25 926.91 719.25 930.79C719.25 935.56 723.13 939.44 727.9 939.44C732.67 939.44 736.55 935.56 736.55 930.79C736.55 926.91 733.98 923.62 730.46 922.53C730.49 882.27 730.49 830.48 730.49 792.24C734.67 786.02 739.12 780.18 743.43 774.52C749.47 766.58 755.71 758.37 761.28 749.07L756.91 746.45L756.9 746.46ZM727.91 934.35C725.95 934.35 724.36 932.76 724.36 930.8C724.36 928.84 725.95 927.25 727.91 927.25C729.87 927.25 731.46 928.84 731.46 930.8C731.46 932.76 729.87 934.35 727.91 934.35Z" fill="#F52525"/>
<path d="M857.16 744.33H862.26C862.26 710.75 862.26 666.35 862.27 620.69H857.17C857.15 666.34 857.15 710.75 857.16 744.33Z" fill="#F52525"/>
<path d="M879.04 490.47C871.53 490.47 865.42 496.58 865.42 504.09C865.42 510.74 870.21 516.28 876.51 517.47C876.63 602.41 876.65 692.63 876.58 801.16H881.68C881.75 692.63 881.73 602.41 881.61 517.47C887.89 516.26 892.66 510.73 892.66 504.1C892.66 496.59 886.55 490.48 879.04 490.48V490.47ZM879.04 512.61C874.34 512.61 870.52 508.79 870.52 504.09C870.52 499.39 874.34 495.57 879.04 495.57C883.74 495.57 887.56 499.39 887.56 504.09C887.56 508.79 883.74 512.61 879.04 512.61Z" fill="#F52525"/>
<path d="M809.89 507.04C809.89 512.76 814.54 517.42 820.27 517.42C826 517.42 830.65 512.76 830.65 507.04C830.65 502.17 827.27 498.08 822.74 496.97C822.83 450.81 822.8 409.54 822.63 370.87L817.53 370.89C817.7 409.56 817.74 450.84 817.64 497.01C813.19 498.18 809.9 502.22 809.9 507.04H809.89ZM825.55 507.04C825.55 509.95 823.18 512.32 820.27 512.32C817.36 512.32 814.99 509.95 814.99 507.04C814.99 504.13 817.36 501.76 820.27 501.76C823.18 501.76 825.55 504.13 825.55 507.04Z" fill="#F52525"/>
<path d="M958.26 557.06V544.84C958.22 514.47 958.2 488.24 958.24 458.53H953.14C953.1 488.24 953.13 514.47 953.15 544.84V556.05C950.22 563.13 915.05 647.79 914.97 647.97L914.78 648.44V648.94C914.58 703.01 914.59 756.18 914.63 801.32C911.2 802.41 908.71 805.62 908.71 809.4C908.71 814.08 912.51 817.88 917.19 817.88C921.87 817.88 925.67 814.08 925.67 809.4C925.67 805.61 923.17 802.39 919.73 801.31C919.69 756.32 919.68 703.35 919.88 649.46C920.83 647.18 926.31 633.99 958.07 557.53L958.27 557.06H958.26ZM917.18 812.78C915.32 812.78 913.8 811.26 913.8 809.4C913.8 807.54 915.32 806.02 917.18 806.02C919.04 806.02 920.56 807.54 920.56 809.4C920.56 811.26 919.04 812.78 917.18 812.78Z" fill="#F52525"/>
<path d="M879.03 827.76C874.35 827.76 870.55 831.56 870.55 836.24C870.55 840.03 873.05 843.25 876.49 844.33V927.97H881.58V844.32C885.02 843.23 887.51 840.02 887.51 836.24C887.51 831.56 883.71 827.76 879.03 827.76ZM879.03 839.62C877.17 839.62 875.65 838.1 875.65 836.24C875.65 834.38 877.17 832.86 879.03 832.86C880.89 832.86 882.41 834.38 882.41 836.24C882.41 838.1 880.89 839.62 879.03 839.62Z" fill="#F52525"/>
<path d="M914.77 394.71C914.61 450.43 914.58 510.81 914.7 579.22H919.8C919.68 510.72 919.7 450.28 919.87 394.5C923.13 393.32 925.47 390.2 925.47 386.54C925.47 381.86 921.67 378.06 916.99 378.06C912.31 378.06 908.51 381.86 908.51 386.54C908.51 390.45 911.17 393.74 914.77 394.72V394.71ZM916.98 383.15C918.84 383.15 920.36 384.67 920.36 386.53C920.36 388.39 918.84 389.91 916.98 389.91C915.12 389.91 913.6 388.39 913.6 386.53C913.6 384.67 915.12 383.15 916.98 383.15Z" fill="#F52525"/>
<path d="M798.48 239.96C798.48 245.67 803.13 250.32 808.85 250.32C810.14 250.32 811.37 250.09 812.51 249.65L828.22 274.65C828.25 299.56 828.25 318.95 828.22 337.42H833.32C833.35 318.77 833.36 299.18 833.32 273.91V273.18L816.69 246.73C818.28 244.91 819.23 242.55 819.23 239.96C819.23 237.37 818.27 234.97 816.68 233.15C815.56 231.86 814.13 230.85 812.49 230.23C811.36 229.8 810.13 229.57 808.85 229.57C807.91 229.57 807 229.7 806.13 229.94C804.44 230.39 802.93 231.27 801.7 232.45C799.72 234.34 798.48 237.01 798.48 239.96ZM808.85 234.67C808.94 234.67 809.02 234.67 809.11 234.68C809.27 234.68 809.44 234.7 809.6 234.73C811.43 234.99 812.95 236.19 813.68 237.81C813.97 238.46 814.13 239.19 814.13 239.96C814.13 240.68 813.98 241.37 813.71 242C813.02 243.65 811.5 244.88 809.68 245.16C809.41 245.21 809.13 245.23 808.85 245.23C805.94 245.23 803.57 242.86 803.57 239.96C803.57 238.84 803.92 237.8 804.52 236.94C805.47 235.57 807.06 234.67 808.85 234.67Z" fill="#F52525"/>
<path d="M854.16 950.89C854.11 893.95 854.1 833.63 854.14 766.56V765.81L815.79 706.15C815.79 684.6 815.74 663.46 815.69 642.99C815.64 621.69 815.59 599.66 815.59 577.15C822.6 568.9 829.1 559.95 835.4 551.29C841.18 543.34 847.15 535.12 853.52 527.43L854.11 526.72V525.8C854.11 489.22 854.11 451.42 854.14 414.12C858.65 412.99 862.01 408.92 862.01 404.06C862.01 398.34 857.36 393.68 851.63 393.68C845.9 393.68 841.25 398.34 841.25 404.06C841.25 408.89 844.57 412.94 849.04 414.1C849.01 451.1 849.01 488.59 849.01 524.89C842.76 532.5 836.93 540.52 831.28 548.29C824.86 557.12 818.22 566.26 811.11 574.55L810.5 575.27V576.21C810.5 599.06 810.55 621.4 810.6 643C810.65 663.7 810.7 685.1 810.7 706.9V707.65L849.05 767.31C849.01 834.09 849.02 894.17 849.07 950.9C844.44 952.05 841 956.23 841 961.21C841 967.07 845.77 971.84 851.63 971.84C857.49 971.84 862.26 967.07 862.26 961.21C862.26 956.22 858.8 952.04 854.16 950.9V950.89ZM846.34 404.06C846.34 401.15 848.71 398.78 851.62 398.78C854.53 398.78 856.9 401.15 856.9 404.06C856.9 406.97 854.53 409.34 851.62 409.34C848.71 409.34 846.34 406.97 846.34 404.06ZM851.62 966.74C848.57 966.74 846.08 964.26 846.08 961.2C846.08 958.14 848.56 955.66 851.62 955.66C854.68 955.66 857.16 958.14 857.16 961.2C857.16 964.26 854.68 966.74 851.62 966.74Z" fill="#F52525"/>
<path d="M857.7 549.6L853.39 546.89L825.58 591.14V591.87C825.55 616.14 825.56 635.16 825.58 653.15C821.07 654.28 817.72 658.35 817.72 663.2C817.72 668.92 822.38 673.58 828.1 673.58C833.82 673.58 838.48 668.92 838.48 663.2C838.48 658.37 835.16 654.31 830.68 653.16C830.65 635.35 830.65 616.52 830.68 592.6L857.71 549.6H857.7ZM833.37 663.2C833.37 666.11 831 668.48 828.09 668.48C825.18 668.48 822.81 666.11 822.81 663.2C822.81 660.29 825.18 657.92 828.09 657.92C831 657.92 833.37 660.29 833.37 663.2Z" fill="#F52525"/>
<path d="M925.16 846.83C922.39 846.72 919.75 847.73 917.73 849.62C915.71 851.51 914.54 854.08 914.45 856.85C914.29 861.68 917.47 865.84 921.91 867.14C921.35 884.95 920.73 903.76 919.91 927.67L891.46 969.75L895.68 972.6L924.95 929.3L924.98 928.57C925.81 904.32 926.44 885.31 927.01 867.33C931.55 866.35 935.04 862.39 935.2 857.53C935.39 851.81 930.89 847 925.17 846.81L925.16 846.83ZM924.64 862.48C921.73 862.38 919.44 859.94 919.54 857.03C919.59 855.62 920.18 854.31 921.21 853.35C922.2 852.43 923.47 851.93 924.81 851.93C924.87 851.93 924.93 851.93 924.99 851.93C927.9 852.03 930.19 854.47 930.09 857.38C929.99 860.29 927.55 862.56 924.64 862.48Z" fill="#F52525"/>
<path d="M872.78 473.23C875.42 473.23 877.92 472.24 879.86 470.43C881.88 468.54 883.05 465.97 883.14 463.2C883.23 460.43 882.22 457.88 880.5 455.96L890.87 440.63L890.89 439.9C891.26 429.06 891.12 418.13 890.99 407.57C890.89 399.47 890.79 391.13 890.92 382.85C892.62 382.43 894.2 381.59 895.52 380.36C897.54 378.47 898.71 375.9 898.8 373.13C898.99 367.41 894.49 362.6 888.77 362.41C883.05 362.2 878.24 366.72 878.05 372.44C877.89 377.38 881.22 381.63 885.82 382.82C885.7 391.15 885.79 399.52 885.89 407.63C886.02 417.89 886.16 428.5 885.82 438.99L876.28 453.1C875.29 452.74 874.22 452.52 873.11 452.49C870.34 452.39 867.7 453.39 865.68 455.28C863.66 457.17 862.49 459.74 862.4 462.51C862.21 468.23 866.71 473.04 872.43 473.23C872.55 473.23 872.67 473.23 872.78 473.23ZM883.15 372.61C883.24 369.76 885.59 367.51 888.42 367.51C888.48 367.51 888.54 367.51 888.6 367.51C891.51 367.61 893.8 370.05 893.7 372.96C893.65 374.37 893.06 375.68 892.03 376.64C891 377.6 889.66 378.1 888.25 378.06C885.34 377.96 883.05 375.52 883.15 372.61ZM867.49 462.68C867.54 461.27 868.13 459.96 869.16 459C870.15 458.08 871.42 457.58 872.76 457.58C872.82 457.58 872.88 457.58 872.94 457.58C875.85 457.68 878.14 460.12 878.04 463.03C877.99 464.44 877.4 465.75 876.37 466.71C875.34 467.67 874 468.17 872.59 468.13C869.68 468.03 867.39 465.59 867.49 462.68Z" fill="#F52525"/>
<path d="M791.15 901.16C791.13 873.31 791.12 842.92 791.13 805.92C795.33 804.79 798.44 800.96 798.44 796.4C798.44 790.96 794.02 786.54 788.58 786.54C783.14 786.54 778.72 790.96 778.72 796.4C778.72 800.96 781.83 804.79 786.04 805.92C786.03 842.92 786.04 873.32 786.06 901.16C781.86 902.29 778.76 906.12 778.76 910.67C778.76 916.11 783.18 920.53 788.62 920.53C794.06 920.53 798.48 916.11 798.48 910.67C798.48 906.11 795.37 902.27 791.16 901.15L791.15 901.16ZM783.81 796.41C783.81 793.78 785.95 791.64 788.58 791.64C791.21 791.64 793.35 793.78 793.35 796.41C793.35 799.04 791.21 801.18 788.58 801.18C785.95 801.18 783.81 799.04 783.81 796.41ZM788.61 915.45C785.98 915.45 783.84 913.31 783.84 910.68C783.84 908.05 785.98 905.91 788.61 905.91C791.24 905.91 793.38 908.05 793.38 910.68C793.38 913.31 791.24 915.45 788.61 915.45Z" fill="#F52525"/>
<path d="M801.89 720.59C801.89 715.82 798.01 711.94 793.24 711.94C788.47 711.94 784.59 715.82 784.59 720.59C784.59 725.36 788.47 729.24 793.24 729.24C794.16 729.24 795.05 729.09 795.88 728.83L830.31 778.17V938.7L804.36 967.6L808.15 971.01L835.41 940.65V776.57L800.06 725.91C801.21 724.44 801.9 722.6 801.9 720.6L801.89 720.59ZM789.69 720.59C789.69 718.63 791.28 717.04 793.24 717.04C795.2 717.04 796.79 718.63 796.79 720.59C796.79 722.55 795.2 724.14 793.24 724.14C791.28 724.14 789.69 722.55 789.69 720.59Z" fill="#F52525"/>
<path d="M813.24 922.54C809.72 923.63 807.15 926.92 807.15 930.8C807.15 935.57 811.03 939.45 815.8 939.45C820.57 939.45 824.45 935.57 824.45 930.8C824.45 926.92 821.88 923.62 818.34 922.54C818.31 882.01 818.31 829.8 818.31 791.48V790.71L817.88 790.07C813.49 783.48 808.83 777.36 804.33 771.45C798.37 763.62 792.22 755.53 786.8 746.47L782.43 749.09C788 758.39 794.24 766.6 800.28 774.54C804.59 780.2 809.04 786.05 813.22 792.26C813.22 830.5 813.22 882.29 813.25 922.55L813.24 922.54ZM815.79 934.35C813.83 934.35 812.24 932.76 812.24 930.8C812.24 928.84 813.83 927.25 815.79 927.25C817.75 927.25 819.34 928.84 819.34 930.8C819.34 932.76 817.75 934.35 815.79 934.35Z" fill="#F52525"/>
<path d="M971.75 657.35C971.75 651.91 967.33 647.49 961.89 647.49C956.45 647.49 952.03 651.91 952.03 657.35C952.03 661.9 955.14 665.74 959.34 666.87C959.35 703.87 959.34 734.26 959.32 762.11C955.11 763.23 952 767.07 952 771.63C952 777.07 956.42 781.49 961.86 781.49C967.3 781.49 971.72 777.07 971.72 771.63C971.72 767.08 968.62 763.25 964.42 762.12C964.44 734.27 964.45 703.87 964.44 666.88C968.65 665.75 971.76 661.92 971.76 657.36L971.75 657.35ZM966.62 771.62C966.62 774.25 964.48 776.39 961.85 776.39C959.22 776.39 957.08 774.25 957.08 771.62C957.08 768.99 959.22 766.85 961.85 766.85C964.48 766.85 966.62 768.99 966.62 771.62ZM961.89 662.11C959.26 662.11 957.12 659.97 957.12 657.34C957.12 654.71 959.26 652.57 961.89 652.57C964.52 652.57 966.66 654.71 966.66 657.34C966.66 659.97 964.52 662.11 961.89 662.11Z" fill="#F52525"/>
<path d="M932.16 654.3C932.16 692.43 932.16 743.6 932.13 783.48C928.6 784.57 926.02 787.86 926.02 791.74C926.02 796.51 929.9 800.39 934.67 800.39C939.44 800.39 943.32 796.51 943.32 791.74C943.32 787.86 940.75 784.57 937.23 783.48C937.26 743.6 937.26 692.43 937.26 654.3H932.16ZM934.68 795.29C932.72 795.29 931.13 793.7 931.13 791.74C931.13 789.78 932.72 788.19 934.68 788.19C936.64 788.19 938.23 789.78 938.23 791.74C938.23 793.7 936.64 795.29 934.68 795.29Z" fill="#F52525"/>
<path d="M70.66 594.24C76.1 594.24 80.52 589.82 80.52 584.38C80.52 579.83 77.42 576 73.22 574.87C73.24 547.02 73.25 516.62 73.24 479.63C77.45 478.5 80.56 474.67 80.56 470.11C80.56 464.67 76.14 460.25 70.7 460.25C65.26 460.25 60.84 464.67 60.84 470.11C60.84 474.66 63.95 478.5 68.15 479.63C68.16 516.63 68.15 547.02 68.13 574.87C63.92 575.99 60.81 579.83 60.81 584.39C60.81 589.83 65.23 594.25 70.67 594.25L70.66 594.24ZM65.93 470.1C65.93 467.47 68.07 465.33 70.7 465.33C73.33 465.33 75.47 467.47 75.47 470.1C75.47 472.73 73.33 474.87 70.7 474.87C68.07 474.87 65.93 472.73 65.93 470.1ZM70.66 579.61C73.29 579.61 75.43 581.75 75.43 584.38C75.43 587.01 73.29 589.15 70.66 589.15C68.03 589.15 65.89 587.01 65.89 584.38C65.89 581.75 68.03 579.61 70.66 579.61Z" fill="#F52525"/>
<path d="M43.47 613.15C48.24 613.15 52.12 609.27 52.12 604.5C52.12 600.62 49.55 597.33 46.03 596.24C46.06 555.98 46.06 504.19 46.06 465.95C50.24 459.73 54.69 453.89 59 448.23C65.04 440.29 71.28 432.08 76.85 422.78L72.48 420.16C67.06 429.22 60.9 437.31 54.95 445.14C50.45 451.06 45.79 457.18 41.4 463.76L40.97 464.4V465.17C40.97 503.48 40.97 555.7 40.94 596.23C37.41 597.32 34.83 600.61 34.83 604.49C34.83 609.26 38.71 613.14 43.48 613.14L43.47 613.15ZM43.47 600.95C45.43 600.95 47.02 602.54 47.02 604.5C47.02 606.46 45.43 608.05 43.47 608.05C41.51 608.05 39.92 606.46 39.92 604.5C39.92 602.54 41.51 600.95 43.47 600.95Z" fill="#F52525"/>
<path d="M66.03 402.94C70.8 402.94 74.68 399.06 74.68 394.29C74.68 389.52 70.8 385.64 66.03 385.64C61.26 385.64 57.38 389.52 57.38 394.29C57.38 396.29 58.07 398.13 59.22 399.6L23.87 450.26V559.25H28.97V451.86L63.4 402.52C64.23 402.79 65.12 402.93 66.04 402.93L66.03 402.94ZM66.03 390.74C67.99 390.74 69.58 392.33 69.58 394.29C69.58 396.25 67.99 397.84 66.03 397.84C64.07 397.84 62.48 396.25 62.48 394.29C62.48 392.33 64.07 390.74 66.03 390.74Z" fill="#F52525"/>
<path d="M131.56 546C131.56 532.53 131.58 519.22 131.61 506.12H126.51C126.49 518.97 126.47 532.03 126.46 545.25L88.11 604.91V605.66C88.15 672.72 88.14 733.05 88.09 789.99C83.45 791.13 79.99 795.32 79.99 800.3C79.99 806.16 84.76 810.93 90.62 810.93C96.48 810.93 101.25 806.16 101.25 800.3C101.25 795.32 97.81 791.14 93.18 789.99C93.23 733.25 93.24 673.17 93.2 606.4L131.55 546.74V545.99L131.56 546ZM96.17 800.31C96.17 803.36 93.69 805.85 90.63 805.85C87.57 805.85 85.09 803.37 85.09 800.31C85.09 797.25 87.57 794.77 90.63 794.77C93.69 794.77 96.17 797.25 96.17 800.31Z" fill="#F52525"/>
<path d="M13.73 647.29C18.41 647.29 22.21 643.49 22.21 638.81C22.21 635.02 19.71 631.8 16.27 630.72C16.24 593.34 16.23 550.46 16.34 506.12H11.24C11.13 550.46 11.14 593.35 11.17 630.73C7.74 631.82 5.25 635.03 5.25 638.81C5.25 643.49 9.05 647.29 13.73 647.29ZM13.73 635.43C15.59 635.43 17.11 636.95 17.11 638.81C17.11 640.67 15.59 642.19 13.73 642.19C11.87 642.19 10.35 640.67 10.35 638.81C10.35 636.95 11.87 635.43 13.73 635.43Z" fill="#F52525"/>
<path d="M41.6 752.13C41.6 757.99 46.37 762.76 52.23 762.76C58.09 762.76 62.86 757.99 62.86 752.13C62.86 747.14 59.4 742.96 54.76 741.82C54.74 708.01 54.73 671.07 54.74 625.83H49.64C49.63 671.08 49.64 708.02 49.66 741.83C45.03 742.98 41.59 747.16 41.59 752.14L41.6 752.13ZM52.23 746.59C55.28 746.59 57.77 749.07 57.77 752.13C57.77 755.19 55.29 757.67 52.23 757.67C49.17 757.67 46.69 755.19 46.69 752.13C46.69 749.07 49.17 746.59 52.23 746.59Z" fill="#F52525"/>
<path d="M-7.79 802.03L21.48 758.73L21.51 758C22.34 733.75 22.97 714.74 23.54 696.76C28.08 695.78 31.57 691.82 31.73 686.96C31.92 681.24 27.42 676.43 21.7 676.24C18.93 676.13 16.29 677.14 14.27 679.03C12.25 680.92 11.08 683.49 10.99 686.26C10.83 691.09 14.01 695.25 18.45 696.55C17.89 714.36 17.27 733.17 16.45 757.08L-12 799.16L-7.78 802.01L-7.79 802.03ZM16.08 686.44C16.13 685.03 16.72 683.72 17.75 682.76C18.74 681.84 20.01 681.34 21.35 681.34C21.41 681.34 21.47 681.34 21.53 681.34C24.44 681.44 26.73 683.88 26.63 686.79C26.53 689.7 24.09 691.97 21.18 691.89C18.27 691.79 15.98 689.35 16.08 686.44Z" fill="#F52525"/>
<path d="M152.95 730.57C148.74 731.69 145.63 735.53 145.63 740.09C145.63 745.53 150.05 749.95 155.49 749.95C160.93 749.95 165.35 745.53 165.35 740.09C165.35 735.54 162.25 731.71 158.05 730.58C158.07 702.73 158.08 672.33 158.07 635.34C162.28 634.21 165.39 630.38 165.39 625.82C165.39 620.38 160.97 615.96 155.53 615.96C150.09 615.96 145.67 620.38 145.67 625.82C145.67 630.37 148.78 634.21 152.98 635.34C152.99 672.34 152.98 702.73 152.96 730.58L152.95 730.57ZM160.25 740.09C160.25 742.72 158.11 744.86 155.48 744.86C152.85 744.86 150.71 742.72 150.71 740.09C150.71 737.46 152.85 735.32 155.48 735.32C158.11 735.32 160.25 737.46 160.25 740.09ZM150.75 625.82C150.75 623.19 152.89 621.05 155.52 621.05C158.15 621.05 160.29 623.19 160.29 625.82C160.29 628.45 158.15 630.59 155.52 630.59C152.89 630.59 150.75 628.45 150.75 625.82Z" fill="#F52525"/>
<path d="M139.17 807L113.79 768.31V607.57L149.46 556.46L145.28 553.54L108.7 605.97V769.83L134.91 809.79L139.17 807Z" fill="#F52525"/>
<path d="M143.82 603.94C149.86 596 156.1 587.79 161.67 578.49L157.3 575.87C151.88 584.93 145.72 593.02 139.77 600.85C135.27 606.77 130.61 612.89 126.22 619.47L125.79 620.11V620.88C125.79 659.19 125.79 711.41 125.76 751.94C122.23 753.03 119.65 756.32 119.65 760.2C119.65 764.97 123.53 768.85 128.3 768.85C133.07 768.85 136.95 764.97 136.95 760.2C136.95 756.32 134.38 753.03 130.86 751.94C130.89 711.68 130.89 659.89 130.89 621.65C135.07 615.43 139.52 609.59 143.83 603.93L143.82 603.94ZM128.3 763.76C126.34 763.76 124.75 762.17 124.75 760.21C124.75 758.25 126.34 756.66 128.3 756.66C130.26 756.66 131.85 758.25 131.85 760.21C131.85 762.17 130.26 763.76 128.3 763.76Z" fill="#F52525"/>
<path d="M282.08 630.56C282.11 586.34 282.12 545.15 282.12 506.12H277.02C277.02 545.15 277.01 586.33 276.98 630.55H282.08V630.56Z" fill="#F52525"/>
<path d="M281.98 757.38V673.73C285.42 672.64 287.91 669.43 287.91 665.65C287.91 660.97 284.11 657.17 279.43 657.17C274.75 657.17 270.95 660.97 270.95 665.65C270.95 669.44 273.45 672.66 276.89 673.74V757.38H281.98ZM279.43 662.27C281.29 662.27 282.81 663.79 282.81 665.65C282.81 667.51 281.29 669.03 279.43 669.03C277.57 669.03 276.05 667.51 276.05 665.65C276.05 663.79 277.57 662.27 279.43 662.27Z" fill="#F52525"/>
<path d="M435.42 546C435.42 532.53 435.44 519.22 435.47 506.12H430.37C430.34 518.97 430.33 532.03 430.32 545.25L391.97 604.91V605.66C392.01 672.72 392 733.05 391.95 789.99C387.31 791.13 383.85 795.32 383.85 800.3C383.85 806.16 388.62 810.93 394.48 810.93C400.34 810.93 405.11 806.16 405.11 800.3C405.11 795.32 401.67 791.14 397.04 789.99C397.09 733.25 397.1 673.17 397.06 606.4L435.41 546.74V545.99L435.42 546ZM400.03 800.31C400.03 803.36 397.55 805.85 394.49 805.85C391.43 805.85 388.95 803.37 388.95 800.31C388.95 797.25 391.43 794.77 394.49 794.77C397.55 794.77 400.03 797.25 400.03 800.31Z" fill="#F52525"/>
<path d="M317.59 647.29C322.27 647.29 326.07 643.49 326.07 638.81C326.07 635.02 323.57 631.8 320.13 630.72C320.1 593.34 320.09 550.46 320.2 506.12H315.1C314.99 550.46 315 593.35 315.03 630.73C311.6 631.82 309.11 635.03 309.11 638.81C309.11 643.49 312.91 647.29 317.59 647.29ZM317.59 635.43C319.45 635.43 320.97 636.95 320.97 638.81C320.97 640.67 319.45 642.19 317.59 642.19C315.73 642.19 314.21 640.67 314.21 638.81C314.21 636.95 315.73 635.43 317.59 635.43Z" fill="#F52525"/>
<path d="M345.45 752.13C345.45 757.99 350.22 762.76 356.08 762.76C361.94 762.76 366.71 757.99 366.71 752.13C366.71 747.14 363.25 742.96 358.61 741.82C358.59 708.01 358.58 671.07 358.59 625.83H353.49C353.48 671.08 353.49 708.02 353.51 741.83C348.88 742.98 345.44 747.16 345.44 752.14L345.45 752.13ZM356.08 746.59C359.13 746.59 361.62 749.07 361.62 752.13C361.62 755.19 359.14 757.67 356.08 757.67C353.02 757.67 350.54 755.19 350.54 752.13C350.54 749.07 353.02 746.59 356.08 746.59Z" fill="#F52525"/>
<path d="M254.56 780.3C254.51 723.36 254.5 663.04 254.54 595.97V595.22L216.19 535.56C216.19 525.65 216.18 515.84 216.16 506.13H211.06C211.08 516.08 211.09 526.15 211.09 536.31V537.06L249.44 596.72C249.4 663.5 249.41 723.58 249.46 780.31C244.83 781.46 241.39 785.64 241.39 790.62C241.39 796.48 246.16 801.25 252.02 801.25C257.88 801.25 262.65 796.48 262.65 790.62C262.65 785.63 259.19 781.45 254.55 780.31L254.56 780.3ZM252.02 796.15C248.97 796.15 246.48 793.67 246.48 790.61C246.48 787.55 248.96 785.07 252.02 785.07C255.08 785.07 257.56 787.55 257.56 790.61C257.56 793.67 255.08 796.15 252.02 796.15Z" fill="#F52525"/>
<path d="M296.07 802.03L325.34 758.73L325.37 758C326.2 733.75 326.83 714.74 327.4 696.76C331.94 695.78 335.43 691.82 335.59 686.96C335.78 681.24 331.28 676.43 325.56 676.24C322.79 676.13 320.15 677.14 318.13 679.03C316.11 680.92 314.94 683.49 314.85 686.26C314.69 691.09 317.87 695.25 322.31 696.55C321.75 714.36 321.13 733.17 320.31 757.08L291.86 799.16L296.08 802.01L296.07 802.03ZM319.94 686.44C319.99 685.03 320.58 683.72 321.61 682.76C322.6 681.84 323.87 681.34 325.21 681.34C325.27 681.34 325.33 681.34 325.39 681.34C328.3 681.44 330.59 683.88 330.49 686.79C330.39 689.7 327.95 691.97 325.04 691.89C322.13 691.79 319.84 689.35 319.94 686.44Z" fill="#F52525"/>
<path d="M179.15 740.09C179.15 745.53 183.57 749.95 189.01 749.95C194.45 749.95 198.87 745.53 198.87 740.09C198.87 735.53 195.76 731.69 191.55 730.57C191.53 702.72 191.52 672.33 191.53 635.33C195.73 634.2 198.84 630.37 198.84 625.81C198.84 620.37 194.42 615.95 188.98 615.95C183.54 615.95 179.12 620.37 179.12 625.81C179.12 630.37 182.23 634.2 186.44 635.33C186.43 672.33 186.44 702.73 186.46 730.57C182.26 731.7 179.16 735.53 179.16 740.08L179.15 740.09ZM184.22 625.82C184.22 623.19 186.36 621.05 188.99 621.05C191.62 621.05 193.76 623.19 193.76 625.82C193.76 628.45 191.62 630.59 188.99 630.59C186.36 630.59 184.22 628.45 184.22 625.82ZM189.02 735.33C191.65 735.33 193.79 737.47 193.79 740.1C193.79 742.73 191.65 744.87 189.02 744.87C186.39 744.87 184.25 742.73 184.25 740.1C184.25 737.47 186.39 735.33 189.02 735.33Z" fill="#F52525"/>
<path d="M235.8 605.97L200.45 555.31C201.6 553.84 202.29 552 202.29 550C202.29 545.23 198.41 541.35 193.64 541.35C188.87 541.35 184.99 545.23 184.99 550C184.99 554.77 188.87 558.65 193.64 558.65C194.56 558.65 195.45 558.5 196.28 558.24L230.71 607.58V768.11L204.76 797.01L208.55 800.42L235.81 770.06V605.98L235.8 605.97ZM190.09 550C190.09 548.04 191.68 546.45 193.64 546.45C195.6 546.45 197.19 548.04 197.19 550C197.19 551.96 195.6 553.55 193.64 553.55C191.68 553.55 190.09 551.96 190.09 550Z" fill="#F52525"/>
<path d="M218.28 619.48C213.89 612.89 209.23 606.77 204.73 600.86C198.77 593.03 192.62 584.94 187.2 575.88L182.83 578.5C188.4 587.8 194.64 596.01 200.68 603.95C204.99 609.61 209.44 615.46 213.62 621.67C213.62 659.91 213.62 711.7 213.65 751.96C210.13 753.05 207.56 756.34 207.56 760.22C207.56 764.99 211.44 768.87 216.21 768.87C220.98 768.87 224.86 764.99 224.86 760.22C224.86 756.34 222.29 753.04 218.75 751.96C218.72 711.43 218.72 659.22 218.72 620.9V620.13L218.29 619.49L218.28 619.48ZM216.19 763.77C214.23 763.77 212.64 762.18 212.64 760.22C212.64 758.26 214.23 756.67 216.19 756.67C218.15 756.67 219.74 758.26 219.74 760.22C219.74 762.18 218.15 763.77 216.19 763.77Z" fill="#F52525"/>
<path d="M443.03 807L417.65 768.31V607.57L452.08 558.23C452.91 558.5 453.8 558.64 454.72 558.64C459.49 558.64 463.37 554.76 463.37 549.99C463.37 545.22 459.49 541.34 454.72 541.34C449.95 541.34 446.07 545.22 446.07 549.99C446.07 551.99 446.76 553.83 447.91 555.3L412.56 605.96V769.83L438.77 809.79L443.03 806.99V807ZM454.72 546.45C456.68 546.45 458.27 548.04 458.27 550C458.27 551.96 456.68 553.55 454.72 553.55C452.76 553.55 451.17 551.96 451.17 550C451.17 548.04 452.76 546.45 454.72 546.45Z" fill="#F52525"/>
<path d="M447.68 603.94C453.72 596 459.96 587.79 465.53 578.49L461.16 575.87C455.74 584.93 449.58 593.02 443.63 600.85C439.13 606.77 434.47 612.89 430.08 619.47L429.65 620.11V620.88C429.65 659.19 429.65 711.41 429.62 751.94C426.09 753.03 423.51 756.32 423.51 760.2C423.51 764.97 427.39 768.85 432.16 768.85C436.93 768.85 440.81 764.97 440.81 760.2C440.81 756.32 438.24 753.03 434.72 751.94C434.75 711.68 434.75 659.89 434.75 621.65C438.93 615.43 443.38 609.59 447.69 603.93L447.68 603.94ZM432.16 763.76C430.2 763.76 428.61 762.17 428.61 760.21C428.61 758.25 430.2 756.66 432.16 756.66C434.12 756.66 435.71 758.25 435.71 760.21C435.71 762.17 434.12 763.76 432.16 763.76Z" fill="#F52525"/>
<path d="M81.14 864.97H86.24C86.24 853.53 86.24 840.83 86.24 827.25H81.14C81.14 840.83 81.14 853.53 81.14 864.97Z" fill="#F52525"/>
<path d="M7.1 946.95C-0.410002 946.95 -6.52 953.06 -6.52 960.57C-6.52 967.22 -1.73 972.76 4.57 973.95C4.69 1058.89 4.71 1149.11 4.64 1257.64H9.74C9.81 1149.11 9.79 1058.89 9.67 973.95C15.95 972.74 20.72 967.21 20.72 960.58C20.72 953.07 14.61 946.96 7.1 946.96V946.95ZM7.1 969.09C2.4 969.09 -1.42 965.27 -1.42 960.57C-1.42 955.87 2.4 952.05 7.1 952.05C11.8 952.05 15.62 955.87 15.62 960.57C15.62 965.27 11.8 969.09 7.1 969.09Z" fill="#F52525"/>
<path d="M160.72 989.56C166.44 989.56 171.1 984.9 171.1 979.18C171.1 974.31 167.72 970.22 163.19 969.11C163.28 922.95 163.25 881.67 163.08 843.01L157.98 843.03C158.15 881.69 158.19 922.97 158.09 969.15C153.64 970.32 150.35 974.36 150.35 979.17C150.35 984.89 155.01 989.55 160.73 989.55L160.72 989.56ZM160.72 973.9C163.63 973.9 166 976.27 166 979.18C166 982.09 163.63 984.46 160.72 984.46C157.81 984.46 155.44 982.09 155.44 979.18C155.44 976.27 157.81 973.9 160.72 973.9Z" fill="#F52525"/>
<path d="M97.31 903.94C97.31 896.43 91.2 890.32 83.69 890.32C76.18 890.32 70.07 896.43 70.07 903.94C70.07 910.6 74.87 916.14 81.2 917.32C81.17 946.08 81.2 971.75 81.22 1001.33V1012.54C78.29 1019.62 43.12 1104.28 43.04 1104.46L42.85 1104.93V1105.43C42.65 1159.5 42.66 1212.67 42.7 1257.81C39.27 1258.9 36.78 1262.11 36.78 1265.89C36.78 1270.57 40.58 1274.37 45.26 1274.37C49.94 1274.37 53.74 1270.57 53.74 1265.89C53.74 1262.1 51.24 1258.88 47.8 1257.8C47.76 1212.81 47.75 1159.84 47.95 1105.95C48.9 1103.67 54.38 1090.48 86.14 1014.02L86.34 1013.55V1001.33C86.3 971.74 86.28 946.08 86.31 917.31C92.58 916.09 97.32 910.57 97.32 903.95L97.31 903.94ZM45.24 1269.27C43.38 1269.27 41.86 1267.75 41.86 1265.89C41.86 1264.03 43.38 1262.51 45.24 1262.51C47.1 1262.51 48.62 1264.03 48.62 1265.89C48.62 1267.75 47.1 1269.27 45.24 1269.27ZM75.16 903.94C75.16 899.24 78.98 895.42 83.68 895.42C88.38 895.42 92.2 899.24 92.2 903.94C92.2 908.64 88.38 912.46 83.68 912.46C78.98 912.46 75.16 908.64 75.16 903.94Z" fill="#F52525"/>
<path d="M42.82 851.2C42.66 906.92 42.63 967.3 42.75 1035.71H47.85C47.73 967.21 47.75 906.77 47.92 850.99C51.18 849.81 53.52 846.69 53.52 843.03C53.52 838.35 49.72 834.55 45.04 834.55C40.36 834.55 36.56 838.35 36.56 843.03C36.56 846.94 39.22 850.23 42.82 851.21V851.2ZM45.03 839.64C46.89 839.64 48.41 841.16 48.41 843.02C48.41 844.88 46.89 846.4 45.03 846.4C43.17 846.4 41.65 844.88 41.65 843.02C41.65 841.16 43.17 839.64 45.03 839.64Z" fill="#F52525"/>
<path d="M474.16 1135.01C474.16 1140.87 478.93 1145.64 484.8 1145.64C490.67 1145.64 495.43 1140.87 495.43 1135.01C495.43 1130.03 491.98 1125.83 487.34 1124.69C487.31 1093.43 487.31 1059.48 487.32 1018.77C491.83 1017.64 495.17 1013.55 495.17 1008.7C495.17 1002.98 490.52 998.32 484.8 998.32C479.08 998.32 474.42 1002.98 474.42 1008.7C474.42 1013.53 477.74 1017.6 482.22 1018.75C482.22 1059.47 482.22 1093.42 482.24 1124.69C477.6 1125.84 474.16 1130.03 474.16 1135.01ZM479.52 1008.7C479.52 1005.79 481.89 1003.42 484.8 1003.42C487.71 1003.42 490.08 1005.79 490.08 1008.7C490.08 1010.7 488.96 1012.44 487.32 1013.33C486.57 1013.75 485.71 1013.98 484.8 1013.98C483.89 1013.98 482.98 1013.73 482.22 1013.3C480.61 1012.4 479.52 1010.67 479.52 1008.7ZM484.8 1129.47C487.85 1129.47 490.33 1131.96 490.33 1135.01C490.33 1138.06 487.85 1140.55 484.8 1140.55C481.75 1140.55 479.26 1138.06 479.26 1135.01C479.26 1131.96 481.75 1129.47 484.8 1129.47Z" fill="#F52525"/>
<path d="M124.71 1417.08C124.76 1360.34 124.77 1300.26 124.73 1233.49L163.08 1173.83V1173.08C163.08 1151.29 163.13 1129.89 163.18 1109.2C163.23 1087.59 163.28 1065.25 163.28 1042.4V1041.46L162.67 1040.74C155.56 1032.45 148.92 1023.32 142.5 1014.48C136.85 1006.71 131.02 998.68 124.77 991.08C124.77 954.06 124.77 915.8 124.74 878.08H119.64C119.67 916.11 119.67 954.68 119.67 991.99V992.91L120.26 993.62C126.63 1001.31 132.6 1009.53 138.38 1017.48C144.68 1026.14 151.18 1035.09 158.19 1043.34C158.19 1065.86 158.14 1087.88 158.09 1109.19C158.04 1129.65 158 1150.79 157.99 1172.34L119.64 1232V1232.75C119.68 1299.81 119.67 1360.14 119.62 1417.08C114.98 1418.22 111.52 1422.41 111.52 1427.39C111.52 1433.25 116.29 1438.02 122.15 1438.02C128.01 1438.02 132.78 1433.25 132.78 1427.39C132.78 1422.41 129.34 1418.23 124.71 1417.08ZM122.15 1432.92C119.1 1432.92 116.61 1430.44 116.61 1427.38C116.61 1424.32 119.09 1421.84 122.15 1421.84C125.21 1421.84 127.69 1424.32 127.69 1427.38C127.69 1430.44 125.21 1432.92 122.15 1432.92Z" fill="#F52525"/>
<path d="M213.28 938.2C214.11 913.96 214.74 894.94 215.31 876.96C219.85 875.98 223.33 872.01 223.49 867.17C223.68 861.45 219.18 856.64 213.46 856.45C210.69 856.34 208.05 857.35 206.03 859.24C204.01 861.13 202.84 863.7 202.75 866.47C202.59 871.3 205.77 875.46 210.21 876.76C209.65 894.56 209.03 913.38 208.21 937.29L197.96 952.45C197.15 952.22 196.3 952.08 195.42 952.05C192.65 951.95 190.01 952.95 187.99 954.85C185.96 956.74 184.8 959.31 184.71 962.08C184.52 967.8 189.01 972.61 194.73 972.8H195.08C200.65 972.8 205.26 968.37 205.45 962.77C205.55 959.76 204.35 957.01 202.36 955.05L213.25 938.93L213.28 938.2ZM200.35 962.6C200.26 965.51 197.82 967.78 194.9 967.7C191.99 967.61 189.7 965.16 189.8 962.25C189.85 960.84 190.44 959.53 191.47 958.57C192.39 957.72 193.54 957.23 194.77 957.16C194.87 957.16 194.97 957.16 195.07 957.16H195.25C196.98 957.22 198.49 958.11 199.4 959.43C200.04 960.33 200.39 961.43 200.35 962.61V962.6ZM207.85 866.64C207.9 865.23 208.49 863.92 209.52 862.96C210.51 862.04 211.78 861.54 213.12 861.54C213.18 861.54 213.24 861.54 213.3 861.54C216.21 861.64 218.5 864.08 218.4 866.99C218.3 869.9 215.86 872.17 212.95 872.09C210.04 871.99 207.75 869.55 207.85 866.64Z" fill="#F52525"/>
<path d="M0.830006 929.71C3.47001 929.71 5.97 928.72 7.91 926.91C9.93 925.02 11.1 922.45 11.19 919.68C11.28 916.91 10.27 914.36 8.55001 912.44L18.92 897.11L18.95 896.38C19.32 885.54 19.18 874.61 19.05 864.05C18.95 855.95 18.85 847.61 18.98 839.33C20.68 838.91 22.26 838.07 23.58 836.84C25.6 834.95 26.77 832.38 26.86 829.61C27.05 823.89 22.55 819.08 16.83 818.89C11.11 818.68 6.3 823.2 6.11 828.92C5.95 833.86 9.28 838.11 13.88 839.3C13.75 847.63 13.85 856 13.95 864.11C14.08 874.37 14.22 884.98 13.88 895.47L4.34 909.58C3.35 909.22 2.28 909 1.17 908.97C-1.6 908.87 -4.24 909.87 -6.26 911.76C-8.28 913.65 -9.45 916.22 -9.54 918.99C-9.73 924.71 -5.23 929.52 0.490002 929.71C0.610002 929.71 0.73 929.71 0.84 929.71H0.830006ZM11.2 829.09C11.29 826.24 13.64 823.99 16.47 823.99C16.53 823.99 16.59 823.99 16.65 823.99C19.56 824.09 21.85 826.53 21.75 829.44C21.7 830.85 21.11 832.16 20.08 833.12C19.05 834.08 17.71 834.58 16.3 834.54C13.39 834.44 11.1 832 11.2 829.09ZM-4.46 919.16C-4.41 917.75 -3.82 916.44 -2.79 915.48C-1.8 914.56 -0.529999 914.06 0.810001 914.06C0.870001 914.06 0.930002 914.06 0.990002 914.06C3.9 914.16 6.19 916.6 6.09 919.51C6.04 920.92 5.45 922.23 4.42 923.19C3.39 924.15 2.05 924.65 0.640003 924.61C-2.27 924.51 -4.56 922.07 -4.46 919.16Z" fill="#F52525"/>
<path d="M310.95 946.95C303.44 946.95 297.33 953.06 297.33 960.57C297.33 967.22 302.12 972.76 308.42 973.95C308.54 1058.89 308.56 1149.11 308.49 1257.64H313.59C313.66 1149.11 313.64 1058.89 313.52 973.95C319.8 972.74 324.57 967.21 324.57 960.58C324.57 953.07 318.46 946.96 310.95 946.96V946.95ZM310.95 969.09C306.25 969.09 302.43 965.27 302.43 960.57C302.43 955.87 306.25 952.05 310.95 952.05C315.65 952.05 319.47 955.87 319.47 960.57C319.47 965.27 315.65 969.09 310.95 969.09Z" fill="#F52525"/>
<path d="M464.58 989.56C470.3 989.56 474.96 984.9 474.96 979.18C474.96 974.31 471.58 970.22 467.05 969.11C467.14 922.95 467.11 881.67 466.94 843.01L461.84 843.03C462.01 881.69 462.05 922.97 461.95 969.15C457.5 970.32 454.21 974.36 454.21 979.17C454.21 984.89 458.86 989.55 464.59 989.55L464.58 989.56ZM464.58 973.9C467.49 973.9 469.86 976.27 469.86 979.18C469.86 982.09 467.49 984.46 464.58 984.46C461.67 984.46 459.3 982.09 459.3 979.18C459.3 976.27 461.67 973.9 464.58 973.9Z" fill="#F52525"/>
<path d="M241.8 963.52C241.8 969.24 246.45 973.9 252.18 973.9C257.91 973.9 262.56 969.24 262.56 963.52C262.56 958.65 259.18 954.56 254.65 953.45C254.74 907.29 254.71 866.02 254.54 827.35L249.44 827.37C249.61 866.04 249.65 907.32 249.55 953.49C245.1 954.66 241.81 958.7 241.81 963.52H241.8ZM257.46 963.52C257.46 966.43 255.09 968.8 252.18 968.8C249.27 968.8 246.9 966.43 246.9 963.52C246.9 960.61 249.27 958.24 252.18 958.24C255.09 958.24 257.46 960.61 257.46 963.52Z" fill="#F52525"/>
<path d="M401.16 903.94C401.16 896.43 395.05 890.32 387.54 890.32C380.03 890.32 373.92 896.43 373.92 903.94C373.92 910.6 378.72 916.14 385.05 917.32C385.02 946.08 385.05 971.75 385.07 1001.33V1012.54C382.14 1019.62 346.97 1104.28 346.89 1104.46L346.7 1104.93V1105.43C346.5 1159.5 346.51 1212.67 346.55 1257.81C343.12 1258.9 340.63 1262.11 340.63 1265.89C340.63 1270.57 344.43 1274.37 349.11 1274.37C353.79 1274.37 357.59 1270.57 357.59 1265.89C357.59 1262.1 355.09 1258.88 351.65 1257.8C351.61 1212.81 351.6 1159.84 351.8 1105.95C352.75 1103.67 358.23 1090.48 389.99 1014.02L390.19 1013.55V1001.33C390.15 971.74 390.13 946.08 390.16 917.31C396.43 916.09 401.17 910.57 401.17 903.95L401.16 903.94ZM349.09 1269.27C347.23 1269.27 345.71 1267.75 345.71 1265.89C345.71 1264.03 347.23 1262.51 349.09 1262.51C350.95 1262.51 352.47 1264.03 352.47 1265.89C352.47 1267.75 350.95 1269.27 349.09 1269.27ZM379.01 903.94C379.01 899.24 382.83 895.42 387.53 895.42C392.23 895.42 396.05 899.24 396.05 903.94C396.05 908.64 392.23 912.46 387.53 912.46C382.83 912.46 379.01 908.64 379.01 903.94Z" fill="#F52525"/>
<path d="M346.68 851.2C346.52 906.92 346.49 967.3 346.61 1035.71H351.71C351.59 967.21 351.61 906.77 351.78 850.99C355.04 849.81 357.38 846.69 357.38 843.03C357.38 838.35 353.58 834.55 348.9 834.55C344.22 834.55 340.42 838.35 340.42 843.03C340.42 846.94 343.08 850.23 346.68 851.21V851.2ZM348.89 839.64C350.75 839.64 352.27 841.16 352.27 843.02C352.27 844.88 350.75 846.4 348.89 846.4C347.03 846.4 345.51 844.88 345.51 843.02C345.51 841.16 347.03 839.64 348.89 839.64Z" fill="#F52525"/>
<path d="M428.56 1417.08C428.61 1360.34 428.62 1300.26 428.58 1233.49L466.93 1173.83V1173.08C466.93 1151.29 466.98 1129.89 467.03 1109.2C467.08 1087.59 467.13 1065.25 467.13 1042.4V1041.46L466.52 1040.74C459.41 1032.45 452.77 1023.32 446.35 1014.48C440.7 1006.71 434.87 998.68 428.62 991.08C428.62 954.78 428.62 917.29 428.59 880.29C433.06 879.14 436.38 875.08 436.38 870.25C436.38 864.53 431.73 859.87 426 859.87C420.27 859.87 415.62 864.52 415.62 870.25C415.62 875.1 418.98 879.18 423.49 880.31C423.52 917.61 423.52 955.41 423.52 991.99V992.91L424.11 993.62C430.48 1001.31 436.45 1009.53 442.23 1017.48C448.53 1026.14 455.03 1035.09 462.04 1043.34C462.04 1065.86 461.99 1087.88 461.94 1109.19C461.89 1129.65 461.85 1150.79 461.84 1172.34L423.49 1232V1232.75C423.53 1299.81 423.52 1360.14 423.47 1417.08C418.83 1418.22 415.37 1422.41 415.37 1427.39C415.37 1433.25 420.14 1438.02 426 1438.02C431.86 1438.02 436.63 1433.25 436.63 1427.39C436.63 1422.41 433.19 1418.23 428.56 1417.08ZM420.72 870.25C420.72 867.34 423.09 864.97 426 864.97C428.91 864.97 431.28 867.34 431.28 870.25C431.28 873.16 428.91 875.53 426 875.53C423.09 875.53 420.72 873.16 420.72 870.25ZM426 1432.93C422.95 1432.93 420.46 1430.45 420.46 1427.39C420.46 1424.33 422.94 1421.85 426 1421.85C429.06 1421.85 431.54 1424.33 431.54 1427.39C431.54 1430.45 429.06 1432.93 426 1432.93Z" fill="#F52525"/>
<path d="M286.07 1407.38C286.02 1350.44 286.01 1290.12 286.05 1223.05V1222.3L247.7 1162.64C247.7 1141.09 247.65 1119.95 247.6 1099.48C247.55 1078.18 247.5 1056.15 247.5 1033.64C254.51 1025.39 261.01 1016.44 267.31 1007.78C273.09 999.83 279.06 991.61 285.43 983.92L286.02 983.21V982.29C286.02 945.71 286.02 907.91 286.05 870.61C290.56 869.48 293.92 865.41 293.92 860.55C293.92 854.83 289.26 850.17 283.54 850.17C277.82 850.17 273.16 854.83 273.16 860.55C273.16 865.38 276.48 869.43 280.95 870.59C280.92 907.59 280.92 945.08 280.92 981.38C274.67 988.99 268.84 997.01 263.19 1004.78C256.77 1013.61 250.13 1022.75 243.02 1031.04L242.41 1031.76V1032.7C242.41 1055.55 242.46 1077.89 242.51 1099.49C242.56 1120.19 242.61 1141.59 242.61 1163.39V1164.14L280.96 1223.8C280.92 1290.58 280.93 1350.66 280.98 1407.39C276.35 1408.54 272.91 1412.72 272.91 1417.7C272.91 1423.56 277.68 1428.33 283.54 1428.33C289.4 1428.33 294.17 1423.56 294.17 1417.7C294.17 1412.71 290.71 1408.53 286.07 1407.39V1407.38ZM278.25 860.55C278.25 857.64 280.62 855.27 283.53 855.27C286.44 855.27 288.81 857.64 288.81 860.55C288.81 863.46 286.44 865.83 283.53 865.83C280.62 865.83 278.25 863.46 278.25 860.55ZM283.53 1423.23C280.48 1423.23 277.99 1420.75 277.99 1417.69C277.99 1414.63 280.47 1412.15 283.53 1412.15C286.59 1412.15 289.07 1414.63 289.07 1417.69C289.07 1420.75 286.59 1423.23 283.53 1423.23Z" fill="#F52525"/>
<path d="M304.69 929.71C307.33 929.71 309.83 928.72 311.77 926.91C313.79 925.02 314.96 922.45 315.05 919.68C315.14 916.91 314.13 914.36 312.41 912.44L322.78 897.11L322.81 896.38C323.18 885.54 323.04 874.61 322.91 864.05C322.81 855.95 322.71 847.61 322.84 839.33C324.54 838.91 326.12 838.07 327.44 836.84C329.46 834.95 330.63 832.38 330.72 829.61C330.91 823.89 326.41 819.08 320.69 818.89C314.97 818.68 310.16 823.2 309.97 828.92C309.81 833.86 313.14 838.11 317.74 839.3C317.61 847.63 317.71 856 317.81 864.11C317.94 874.37 318.08 884.98 317.74 895.47L308.2 909.58C307.2 909.22 306.14 909 305.03 908.97C302.26 908.87 299.62 909.87 297.6 911.76C295.58 913.65 294.41 916.22 294.32 918.99C294.13 924.71 298.63 929.52 304.35 929.71C304.47 929.71 304.59 929.71 304.7 929.71H304.69ZM315.06 829.09C315.15 826.24 317.5 823.99 320.33 823.99C320.39 823.99 320.45 823.99 320.51 823.99C323.42 824.09 325.71 826.53 325.61 829.44C325.56 830.85 324.97 832.16 323.94 833.12C322.91 834.08 321.57 834.58 320.16 834.54C317.25 834.44 314.96 832 315.06 829.09ZM299.4 919.16C299.45 917.75 300.04 916.44 301.07 915.48C302.06 914.56 303.33 914.06 304.67 914.06C304.73 914.06 304.79 914.06 304.85 914.06C307.76 914.16 310.05 916.6 309.95 919.51C309.9 920.92 309.31 922.23 308.28 923.19C307.25 924.15 305.91 924.65 304.5 924.61C301.59 924.51 299.3 922.07 299.4 919.16Z" fill="#F52525"/>
<path d="M1009.64 384.45V300.8C1013.08 299.71 1015.57 296.5 1015.57 292.72C1015.57 288.04 1011.77 284.24 1007.09 284.24C1002.41 284.24 998.61 288.04 998.61 292.72C998.61 296.51 1001.11 299.73 1004.55 300.81V384.45H1009.64ZM1007.09 289.34C1008.95 289.34 1010.47 290.86 1010.47 292.72C1010.47 294.58 1008.95 296.1 1007.09 296.1C1005.23 296.1 1003.71 294.58 1003.71 292.72C1003.71 290.86 1005.23 289.34 1007.09 289.34Z" fill="#F52525"/>
<path d="M985.21 200.82H990.31C990.31 167.24 990.31 122.84 990.32 77.18H985.22C985.2 122.83 985.2 167.24 985.21 200.82Z" fill="#F52525"/>
<path d="M1004.57 -26.05C1004.69 58.89 1004.71 149.11 1004.64 257.64H1009.74C1009.81 149.11 1009.79 58.89 1009.67 -26.05C1015.95 -27.26 1020.72 -32.79 1020.72 -39.42C1020.72 -46.93 1014.61 -53.04 1007.1 -53.04C999.59 -53.04 993.48 -46.93 993.48 -39.42C993.48 -32.77 998.27 -27.23 1004.57 -26.05ZM1007.1 -47.95C1011.8 -47.95 1015.62 -44.13 1015.62 -39.43C1015.62 -34.73 1011.8 -30.91 1007.1 -30.91C1002.4 -30.91 998.58 -34.73 998.58 -39.43C998.58 -44.13 1002.4 -47.95 1007.1 -47.95Z" fill="#F52525"/>
<path d="M913.89 9.39999C913.89 50.3 913.89 84.36 913.91 115.75C909.94 117.29 907.11 121.15 907.11 125.66C907.11 131.52 911.88 136.29 917.74 136.29C923.6 136.29 928.37 131.52 928.37 125.66C928.37 120.22 924.26 115.73 918.99 115.11C918.97 83.9 918.96 50.03 918.99 9.41C923.49 8.28 926.82 4.19001 926.82 -0.649994C926.82 -6.36999 922.17 -11.02 916.44 -11.02C910.71 -11.02 906.07 -6.36999 906.07 -0.649994C906.07 4.19001 909.4 8.27 913.89 9.41V9.39999ZM923.28 125.65C923.28 128.7 920.8 131.19 917.74 131.19C914.68 131.19 912.2 128.71 912.2 125.65C912.2 122.59 914.68 120.11 917.74 120.11C920.8 120.11 923.28 122.59 923.28 125.65ZM916.44 -5.94C919.35 -5.94 921.72 -3.57 921.72 -0.660004C921.72 1.32 920.62 3.06001 918.99 3.96001C918.23 4.38001 917.36 4.62 916.44 4.62C915.52 4.62 914.65 4.38001 913.89 3.96001C912.26 3.06001 911.16 1.32 911.16 -0.660004C911.16 -3.57 913.53 -5.94 916.44 -5.94Z" fill="#F52525"/>
<path d="M938.75 163.38V164.13L977.1 223.79C977.06 290.57 977.07 350.65 977.12 407.38C972.49 408.53 969.05 412.71 969.05 417.69C969.05 423.55 973.82 428.32 979.68 428.32C985.54 428.32 990.31 423.55 990.31 417.69C990.31 412.7 986.85 408.52 982.21 407.38C982.16 350.44 982.15 290.12 982.19 223.05V222.3L943.84 162.64C943.84 141.09 943.79 119.95 943.74 99.48C943.69 78.18 943.64 56.15 943.64 33.64C950.65 25.39 957.15 16.44 963.45 7.78C969.23 -0.170001 975.2 -8.39 981.57 -16.08L982.16 -16.79V-17.71C982.16 -54.29 982.16 -92.09 982.19 -129.39C986.7 -130.52 990.06 -134.59 990.06 -139.45C990.06 -145.17 985.41 -149.83 979.68 -149.83C973.95 -149.83 969.3 -145.17 969.3 -139.45C969.3 -134.62 972.62 -130.57 977.09 -129.41C977.06 -92.41 977.06 -54.92 977.06 -18.62C970.81 -11.01 964.98 -2.99 959.33 4.78C952.91 13.61 946.27 22.75 939.16 31.04L938.55 31.76V32.7C938.55 55.55 938.6 77.89 938.65 99.49C938.7 120.19 938.75 141.59 938.75 163.38ZM985.21 417.69C985.21 420.74 982.73 423.23 979.67 423.23C976.61 423.23 974.13 420.75 974.13 417.69C974.13 414.63 976.61 412.15 979.67 412.15C982.73 412.15 985.21 414.63 985.21 417.69ZM974.39 -139.45C974.39 -142.36 976.76 -144.73 979.67 -144.73C982.58 -144.73 984.95 -142.36 984.95 -139.45C984.95 -136.54 982.58 -134.17 979.67 -134.17C976.76 -134.17 974.39 -136.54 974.39 -139.45Z" fill="#F52525"/>
<path d="M985.76 6.08L981.45 3.37L953.64 47.62V48.35C953.61 72.62 953.62 91.64 953.64 109.63C949.13 110.76 945.78 114.83 945.78 119.68C945.78 125.4 950.43 130.06 956.16 130.06C961.89 130.06 966.54 125.4 966.54 119.68C966.54 114.85 963.22 110.79 958.74 109.64C958.71 91.83 958.71 73 958.74 49.08L985.77 6.08H985.76ZM961.43 119.68C961.43 122.59 959.06 124.96 956.15 124.96C953.24 124.96 950.87 122.59 950.87 119.68C950.87 116.77 953.24 114.4 956.15 114.4C959.06 114.4 961.43 116.77 961.43 119.68Z" fill="#F52525"/>
<path d="M906.8 367.17C906.8 372.61 911.22 377.03 916.66 377.03C922.1 377.03 926.52 372.61 926.52 367.17C926.52 362.61 923.41 358.77 919.2 357.65C919.18 329.8 919.17 299.41 919.18 262.41C923.38 261.28 926.49 257.45 926.49 252.89C926.49 247.45 922.07 243.03 916.63 243.03C911.19 243.03 906.77 247.45 906.77 252.89C906.77 257.45 909.88 261.28 914.09 262.41C914.08 299.41 914.09 329.81 914.11 357.65C909.91 358.78 906.81 362.61 906.81 367.16L906.8 367.17ZM911.87 252.9C911.87 250.27 914.01 248.13 916.64 248.13C919.27 248.13 921.41 250.27 921.41 252.9C921.41 255.53 919.27 257.67 916.64 257.67C914.01 257.67 911.87 255.53 911.87 252.9ZM916.67 362.41C919.3 362.41 921.44 364.55 921.44 367.18C921.44 369.81 919.3 371.95 916.67 371.95C914.04 371.95 911.9 369.81 911.9 367.18C911.9 364.55 914.04 362.41 916.67 362.41Z" fill="#F52525"/>
<path d="M921.3 168.43C916.53 168.43 912.65 172.31 912.65 177.08C912.65 181.85 916.53 185.73 921.3 185.73C922.22 185.73 923.11 185.58 923.94 185.32L958.37 234.66V395.19L932.41 424.09L936.2 427.5L963.46 397.14V233.06L928.11 182.4C929.26 180.93 929.94 179.09 929.94 177.09C929.94 172.32 926.06 168.44 921.29 168.44L921.3 168.43ZM917.75 177.08C917.75 175.12 919.34 173.53 921.3 173.53C923.26 173.53 924.85 175.12 924.85 177.08C924.85 179.04 923.26 180.63 921.3 180.63C919.34 180.63 917.75 179.04 917.75 177.08Z" fill="#F52525"/>
<path d="M945.94 246.55C941.55 239.96 936.89 233.84 932.39 227.93C926.43 220.1 920.28 212.01 914.86 202.95L910.49 205.57C916.06 214.87 922.3 223.08 928.34 231.02C932.65 236.68 937.1 242.53 941.28 248.74C941.28 286.98 941.28 338.77 941.31 379.03C937.79 380.12 935.22 383.41 935.22 387.29C935.22 392.06 939.1 395.94 943.87 395.94C948.64 395.94 952.52 392.06 952.52 387.29C952.52 383.41 949.95 380.11 946.41 379.03C946.38 338.5 946.38 286.29 946.38 247.97V247.2L945.95 246.56L945.94 246.55ZM943.85 390.84C941.89 390.84 940.3 389.25 940.3 387.29C940.3 385.33 941.89 383.74 943.85 383.74C945.81 383.74 947.4 385.33 947.4 387.29C947.4 389.25 945.81 390.84 943.85 390.84Z" fill="#F52525"/>
<path d="M1007.1 946.95C999.59 946.95 993.48 953.06 993.48 960.57C993.48 967.22 998.27 972.76 1004.57 973.95C1004.69 1058.89 1004.71 1149.11 1004.64 1257.64H1009.74C1009.81 1149.11 1009.79 1058.89 1009.67 973.95C1015.95 972.74 1020.72 967.21 1020.72 960.58C1020.72 953.07 1014.61 946.96 1007.1 946.96V946.95ZM1007.1 969.09C1002.4 969.09 998.58 965.27 998.58 960.57C998.58 955.87 1002.4 952.05 1007.1 952.05C1011.8 952.05 1015.62 955.87 1015.62 960.57C1015.62 965.27 1011.8 969.09 1007.1 969.09Z" fill="#F52525"/>
<path d="M948.32 973.9C954.04 973.9 958.7 969.24 958.7 963.52C958.7 958.65 955.32 954.56 950.79 953.45C950.88 907.29 950.85 866.02 950.68 827.35L945.58 827.37C945.75 866.04 945.79 907.32 945.69 953.49C941.24 954.66 937.95 958.7 937.95 963.52C937.95 969.24 942.61 973.9 948.33 973.9H948.32ZM948.32 958.24C951.23 958.24 953.6 960.61 953.6 963.52C953.6 966.43 951.23 968.8 948.32 968.8C945.41 968.8 943.04 966.43 943.04 963.52C943.04 960.61 945.41 958.24 948.32 958.24Z" fill="#F52525"/>
<path d="M919 1115.1C918.98 1083.89 918.97 1050.02 919 1009.4C923.5 1008.27 926.83 1004.18 926.83 999.34C926.83 993.62 922.18 988.97 916.45 988.97C910.72 988.97 906.08 993.62 906.08 999.34C906.08 1004.18 909.41 1008.26 913.9 1009.4C913.9 1050.3 913.9 1084.36 913.92 1115.75C909.95 1117.29 907.12 1121.15 907.12 1125.66C907.12 1131.52 911.89 1136.29 917.75 1136.29C923.61 1136.29 928.38 1131.52 928.38 1125.66C928.38 1120.22 924.27 1115.73 919 1115.11V1115.1ZM911.16 999.34C911.16 996.43 913.53 994.06 916.44 994.06C919.35 994.06 921.72 996.43 921.72 999.34C921.72 1001.32 920.62 1003.06 918.99 1003.96C918.23 1004.38 917.36 1004.62 916.44 1004.62C915.52 1004.62 914.65 1004.38 913.89 1003.96C912.26 1003.06 911.16 1001.32 911.16 999.34ZM917.75 1131.19C914.7 1131.19 912.21 1128.71 912.21 1125.65C912.21 1122.59 914.69 1120.11 917.75 1120.11C920.81 1120.11 923.29 1122.59 923.29 1125.65C923.29 1128.71 920.81 1131.19 917.75 1131.19Z" fill="#F52525"/>
<path d="M982.22 1407.38C982.17 1350.44 982.16 1290.12 982.2 1223.05V1222.3L943.85 1162.64C943.85 1141.09 943.8 1119.95 943.75 1099.48C943.7 1078.18 943.65 1056.15 943.65 1033.64C950.66 1025.39 957.16 1016.44 963.46 1007.78C969.24 999.83 975.21 991.61 981.58 983.92L982.17 983.21V982.29C982.17 945.71 982.17 907.91 982.2 870.61C986.71 869.48 990.07 865.41 990.07 860.55C990.07 854.83 985.42 850.17 979.69 850.17C973.96 850.17 969.31 854.83 969.31 860.55C969.31 865.38 972.63 869.43 977.1 870.59C977.07 907.59 977.07 945.08 977.07 981.38C970.82 988.99 964.99 997.01 959.34 1004.78C952.92 1013.61 946.28 1022.75 939.17 1031.04L938.56 1031.76V1032.7C938.56 1055.55 938.61 1077.89 938.66 1099.49C938.71 1120.19 938.76 1141.59 938.76 1163.39V1164.14L977.11 1223.8C977.07 1290.58 977.08 1350.66 977.13 1407.39C972.5 1408.54 969.06 1412.72 969.06 1417.7C969.06 1423.56 973.83 1428.33 979.69 1428.33C985.55 1428.33 990.32 1423.56 990.32 1417.7C990.32 1412.71 986.86 1408.53 982.22 1407.39V1407.38ZM974.4 860.55C974.4 857.64 976.77 855.27 979.68 855.27C982.59 855.27 984.96 857.64 984.96 860.55C984.96 863.46 982.59 865.83 979.68 865.83C976.77 865.83 974.4 863.46 974.4 860.55ZM979.68 1423.23C976.63 1423.23 974.14 1420.75 974.14 1417.69C974.14 1414.63 976.62 1412.15 979.68 1412.15C982.74 1412.15 985.22 1414.63 985.22 1417.69C985.22 1420.75 982.74 1423.23 979.68 1423.23Z" fill="#F52525"/>
<path d="M1016.83 818.9C1011.11 818.69 1006.3 823.21 1006.11 828.93C1005.95 833.87 1009.28 838.12 1013.88 839.31C1013.75 847.64 1013.85 856.01 1013.95 864.12C1014.08 874.38 1014.22 884.99 1013.88 895.48L1004.34 909.59C1003.35 909.23 1002.28 909.01 1001.17 908.98C998.4 908.88 995.76 909.88 993.74 911.77C991.72 913.66 990.55 916.23 990.46 919C990.27 924.72 994.77 929.53 1000.49 929.72C1000.61 929.72 1000.73 929.72 1000.84 929.72C1003.48 929.72 1005.98 928.73 1007.92 926.92C1009.94 925.03 1011.11 922.46 1011.2 919.69C1011.29 916.92 1010.28 914.37 1008.56 912.45L1018.93 897.12L1018.95 896.39C1019.32 885.55 1019.18 874.62 1019.05 864.06C1018.95 855.96 1018.85 847.62 1018.98 839.34C1020.68 838.92 1022.26 838.08 1023.58 836.85C1025.6 834.96 1026.77 832.39 1026.86 829.62C1027.05 823.9 1022.55 819.09 1016.83 818.9ZM1004.44 923.2C1003.41 924.16 1002.07 924.66 1000.66 924.62C997.75 924.52 995.46 922.08 995.56 919.17C995.61 917.76 996.2 916.45 997.23 915.49C998.22 914.57 999.49 914.07 1000.83 914.07C1000.89 914.07 1000.95 914.07 1001.01 914.07C1003.92 914.17 1006.21 916.61 1006.11 919.52C1006.06 920.93 1005.47 922.24 1004.44 923.2ZM1020.1 833.13C1019.07 834.09 1017.73 834.59 1016.32 834.55C1013.41 834.45 1011.12 832.01 1011.22 829.1C1011.31 826.25 1013.66 824 1016.49 824C1016.55 824 1016.61 824 1016.67 824C1019.58 824.1 1021.87 826.54 1021.77 829.45C1021.72 830.86 1021.13 832.17 1020.1 833.13Z" fill="#F52525"/>
</g>
<path opacity="0.85" d="M1000 0H0V1000H1000V0Z" fill="black"/>
</svg>
