<?xml version="1.0" encoding="utf-8"?>
<!-- Generator: Adobe Illustrator 27.1.1, SVG Export Plug-In . SVG Version: 6.00 Build 0)  -->
<svg version="1.1" xmlns="http://www.w3.org/2000/svg" xmlns:xlink="http://www.w3.org/1999/xlink" x="0px" y="0px"
	 viewBox="0 0 5002.6 3127.3" style="enable-background:new 0 0 5002.6 3127.3;" xml:space="preserve">
<style type="text/css">
	.st0{stroke:#000000;stroke-miterlimit:10;}
	.st1{opacity:0.4;}
	.st2{fill:#252525;stroke:#252525;}
	.st3{fill:#1C1C1C;stroke:#1C1C1C;}
	.st4{fill:#1D1D1D;stroke:#1D1D1D;}
	.st5{fill:#212121;stroke:#212121;}
	.st6{fill:#272727;stroke:#272727;}
	.st7{fill:#1B1B1B;stroke:#1B1B1B;}
	.st8{fill:#151515;stroke:#151515;}
	.st9{fill:#232323;stroke:#232323;}
	.st10{fill:#222222;stroke:#222222;}
	.st11{fill:#262626;stroke:#262626;}
	.st12{fill:#101010;stroke:#101010;}
	.st13{fill:#080808;stroke:#080808;}
	.st14{fill:#0D0D0D;stroke:#0D0D0D;}
	.st15{fill:#191919;stroke:#191919;}
	.st16{fill:#171717;stroke:#171717;}
	.st17{fill:#131313;stroke:#131313;}
	.st18{fill:#121212;stroke:#121212;}
	.st19{fill:#1A1A1A;stroke:#1A1A1A;}
	.st20{fill:#292929;stroke:#292929;}
	.st21{fill:#2A2A2A;stroke:#2A2A2A;}
	.st22{fill:#1E1E1E;stroke:#1E1E1E;}
	.st23{fill:#202020;stroke:#202020;}
	.st24{fill:#2D2D2D;stroke:#2D2D2D;}
	.st25{fill:#282828;stroke:#282828;}
	.st26{fill:#0B0B0B;stroke:#0B0B0B;}
	.st27{fill:#181818;stroke:#181818;}
	.st28{fill:#0E0E0E;stroke:#0E0E0E;}
	.st29{fill:#0F0F0F;stroke:#0F0F0F;}
	.st30{fill:#323232;stroke:#323232;}
	.st31{fill:#2C2C2C;stroke:#2C2C2C;}
	.st32{fill:#353535;stroke:#353535;}
	.st33{fill:#313131;stroke:#313131;}
	.st34{fill:#141414;stroke:#141414;}
	.st35{fill:#161616;stroke:#161616;}
	.st36{fill:#333333;stroke:#333333;}
	.st37{fill:#1F1F1F;stroke:#1F1F1F;}
	.st38{fill:#2B2B2B;stroke:#2B2B2B;}
	.st39{fill:#242424;stroke:#242424;}
	.st40{fill:#010101;stroke:#010101;}
	.st41{fill:#111111;stroke:#111111;}
	.st42{fill:#2F2F2F;stroke:#2F2F2F;}
	.st43{fill:#3B3B3B;stroke:#3B3B3B;}
	.st44{fill:#3C3C3C;stroke:#3C3C3C;}
	.st45{fill:#404040;stroke:#404040;}
	.st46{fill:#303030;stroke:#303030;}
	.st47{fill:#090909;stroke:#090909;}
	.st48{fill:#363636;stroke:#363636;}
	.st49{fill:#3D3D3D;stroke:#3D3D3D;}
	.st50{fill:#383838;stroke:#383838;}
	.st51{fill:#373737;stroke:#373737;}
	.st52{fill:#2E2E2E;stroke:#2E2E2E;}
	.st53{fill:#454545;stroke:#454545;}
	.st54{fill:#3E3E3E;stroke:#3E3E3E;}
	.st55{fill:#464646;stroke:#464646;}
	.st56{fill:#3A3A3A;stroke:#3A3A3A;}
	.st57{fill:#393939;stroke:#393939;}
	.st58{fill:#070707;stroke:#070707;}
	.st59{stroke:#000000;}
	.st60{fill:#494949;stroke:#494949;}
	.st61{fill:#424242;stroke:#424242;}
	.st62{fill:#444444;stroke:#444444;}
	.st63{fill:#4C4C4C;stroke:#4C4C4C;}
	.st64{fill:#060606;stroke:#060606;}
	.st65{fill:#414141;stroke:#414141;}
	.st66{fill:#484848;stroke:#484848;}
	.st67{fill:#3F3F3F;stroke:#3F3F3F;}
	.st68{fill:#4D4D4D;stroke:#4D4D4D;}
	.st69{fill:#434343;stroke:#434343;}
	.st70{fill:#050505;stroke:#050505;}
	.st71{fill:#040404;stroke:#040404;}
	.st72{fill:#020202;stroke:#020202;}
</style>
<g id="Layer_2">
	<rect class="st0" width="5002.6" height="3126.1"/>
</g>
<g id="Ñëîé_1">
	<g class="st1">
		<polygon vector-effect="non-scaling-stroke" class="st2" points="5001.3,1.1 4688.8,1.1 5001.3,285.2 		"/>
		<polygon vector-effect="non-scaling-stroke" class="st3" points="4688.8,1.1 4688.8,285.2 5001.3,285.2 		"/>
		<polygon vector-effect="non-scaling-stroke" class="st4" points="5001.3,285.2 4688.8,285.2 5001.3,569.3 		"/>
		<polygon vector-effect="non-scaling-stroke" class="st5" points="4688.8,285.2 4688.8,569.3 5001.3,569.3 		"/>
		<polygon vector-effect="non-scaling-stroke" class="st6" points="5001.3,569.3 4688.8,569.3 5001.3,853.4 		"/>
		<polygon vector-effect="non-scaling-stroke" class="st7" points="4688.8,569.3 4688.8,853.4 5001.3,853.4 		"/>
		<polygon vector-effect="non-scaling-stroke" class="st8" points="5001.3,853.4 4688.8,853.4 5001.3,1137.5 		"/>
		<polygon vector-effect="non-scaling-stroke" class="st4" points="4688.8,853.4 4688.8,1137.5 5001.3,1137.5 		"/>
		<polygon vector-effect="non-scaling-stroke" class="st4" points="5001.3,1137.5 4688.8,1137.5 5001.3,1421.6 		"/>
		<polygon vector-effect="non-scaling-stroke" class="st9" points="4688.8,1137.5 4688.8,1421.6 5001.3,1421.6 		"/>
		<polygon vector-effect="non-scaling-stroke" class="st10" points="5001.3,1421.6 4688.8,1421.6 5001.3,1705.7 		"/>
		<polygon vector-effect="non-scaling-stroke" class="st11" points="4688.8,1421.6 4688.8,1705.7 5001.3,1705.7 		"/>
		<polygon vector-effect="non-scaling-stroke" class="st8" points="5001.3,1705.7 4688.8,1705.7 5001.3,1989.8 		"/>
		<polygon vector-effect="non-scaling-stroke" class="st12" points="4688.8,1705.7 4688.8,1989.8 5001.3,1989.8 		"/>
		<polygon vector-effect="non-scaling-stroke" class="st13" points="5001.3,1989.8 4688.8,1989.8 5001.3,2273.9 		"/>
		<polygon vector-effect="non-scaling-stroke" class="st14" points="4688.8,1989.8 4688.8,2273.9 5001.3,2273.9 		"/>
		<polygon vector-effect="non-scaling-stroke" class="st15" points="5001.3,2273.9 4688.8,2273.9 5001.3,2557.9 		"/>
		<polygon vector-effect="non-scaling-stroke" class="st16" points="4688.8,2273.9 4688.8,2557.9 5001.3,2557.9 		"/>
		<polygon vector-effect="non-scaling-stroke" class="st17" points="5001.3,2557.9 4688.8,2557.9 5001.3,2842 		"/>
		<polygon vector-effect="non-scaling-stroke" class="st11" points="4688.8,2557.9 4688.8,2842 5001.3,2842 		"/>
		<polygon vector-effect="non-scaling-stroke" class="st18" points="5001.3,2842 4688.8,2842 5001.3,3126.1 		"/>
		<polygon vector-effect="non-scaling-stroke" class="st19" points="4688.8,2842 4688.8,3126.1 5001.3,3126.1 		"/>
		<polygon vector-effect="non-scaling-stroke" class="st20" points="4688.8,1.1 4376.3,1.1 4688.8,285.2 		"/>
		<polygon vector-effect="non-scaling-stroke" class="st2" points="4376.3,1.1 4376.3,285.2 4688.8,285.2 		"/>
		<polygon vector-effect="non-scaling-stroke" class="st21" points="4688.8,285.2 4376.3,285.2 4688.8,569.3 		"/>
		<polygon vector-effect="non-scaling-stroke" class="st22" points="4376.3,285.2 4376.3,569.3 4688.8,569.3 		"/>
		<polygon vector-effect="non-scaling-stroke" class="st5" points="4688.8,569.3 4376.3,569.3 4688.8,853.4 		"/>
		<polygon vector-effect="non-scaling-stroke" class="st10" points="4376.3,569.3 4376.3,853.4 4688.8,853.4 		"/>
		<polygon vector-effect="non-scaling-stroke" class="st10" points="4688.8,853.4 4376.3,853.4 4688.8,1137.5 		"/>
		<polygon vector-effect="non-scaling-stroke" class="st23" points="4376.3,853.4 4376.3,1137.5 4688.8,1137.5 		"/>
		<polygon vector-effect="non-scaling-stroke" class="st24" points="4688.8,1137.5 4376.3,1137.5 4688.8,1421.6 		"/>
		<polygon vector-effect="non-scaling-stroke" class="st25" points="4376.3,1137.5 4376.3,1421.6 4688.8,1421.6 		"/>
		<polygon vector-effect="non-scaling-stroke" class="st17" points="4688.8,1421.6 4376.3,1421.6 4688.8,1705.7 		"/>
		<polygon vector-effect="non-scaling-stroke" class="st15" points="4376.3,1421.6 4376.3,1705.7 4688.8,1705.7 		"/>
		<polygon vector-effect="non-scaling-stroke" class="st18" points="4688.8,1705.7 4376.3,1705.7 4688.8,1989.8 		"/>
		<polygon vector-effect="non-scaling-stroke" class="st9" points="4376.3,1705.7 4376.3,1989.8 4688.8,1989.8 		"/>
		<polygon vector-effect="non-scaling-stroke" class="st26" points="4688.8,1989.8 4376.3,1989.8 4688.8,2273.9 		"/>
		<polygon vector-effect="non-scaling-stroke" class="st27" points="4376.3,1989.8 4376.3,2273.9 4688.8,2273.9 		"/>
		<polygon vector-effect="non-scaling-stroke" class="st28" points="4688.8,2273.9 4376.3,2273.9 4688.8,2557.9 		"/>
		<polygon vector-effect="non-scaling-stroke" class="st27" points="4376.3,2273.9 4376.3,2557.9 4688.8,2557.9 		"/>
		<polygon vector-effect="non-scaling-stroke" class="st19" points="4688.8,2557.9 4376.3,2557.9 4688.8,2842 		"/>
		<polygon vector-effect="non-scaling-stroke" class="st16" points="4376.3,2557.9 4376.3,2842 4688.8,2842 		"/>
		<polygon vector-effect="non-scaling-stroke" class="st9" points="4688.8,2842 4376.3,2842 4688.8,3126.1 		"/>
		<polygon vector-effect="non-scaling-stroke" class="st29" points="4376.3,2842 4376.3,3126.1 4688.8,3126.1 		"/>
		<polygon vector-effect="non-scaling-stroke" class="st30" points="4376.3,1.1 4063.8,1.1 4376.3,285.2 		"/>
		<polygon vector-effect="non-scaling-stroke" class="st7" points="4063.8,1.1 4063.8,285.2 4376.3,285.2 		"/>
		<polygon vector-effect="non-scaling-stroke" class="st20" points="4376.3,285.2 4063.8,285.2 4376.3,569.3 		"/>
		<polygon vector-effect="non-scaling-stroke" class="st31" points="4063.8,285.2 4063.8,569.3 4376.3,569.3 		"/>
		<polygon vector-effect="non-scaling-stroke" class="st32" points="4376.3,569.3 4063.8,569.3 4376.3,853.4 		"/>
		<polygon vector-effect="non-scaling-stroke" class="st31" points="4063.8,569.3 4063.8,853.4 4376.3,853.4 		"/>
		<polygon vector-effect="non-scaling-stroke" class="st27" points="4376.3,853.4 4063.8,853.4 4376.3,1137.5 		"/>
		<polygon vector-effect="non-scaling-stroke" class="st5" points="4063.8,853.4 4063.8,1137.5 4376.3,1137.5 		"/>
		<polygon vector-effect="non-scaling-stroke" class="st11" points="4376.3,1137.5 4063.8,1137.5 4376.3,1421.6 		"/>
		<polygon vector-effect="non-scaling-stroke" class="st10" points="4063.8,1137.5 4063.8,1421.6 4376.3,1421.6 		"/>
		<polygon vector-effect="non-scaling-stroke" class="st33" points="4376.3,1421.6 4063.8,1421.6 4376.3,1705.7 		"/>
		<polygon vector-effect="non-scaling-stroke" class="st10" points="4063.8,1421.6 4063.8,1705.7 4376.3,1705.7 		"/>
		<polygon vector-effect="non-scaling-stroke" class="st10" points="4376.3,1705.7 4063.8,1705.7 4376.3,1989.8 		"/>
		<polygon vector-effect="non-scaling-stroke" class="st34" points="4063.8,1705.7 4063.8,1989.8 4376.3,1989.8 		"/>
		<polygon vector-effect="non-scaling-stroke" class="st15" points="4376.3,1989.8 4063.8,1989.8 4376.3,2273.9 		"/>
		<polygon vector-effect="non-scaling-stroke" class="st29" points="4063.8,1989.8 4063.8,2273.9 4376.3,2273.9 		"/>
		<polygon vector-effect="non-scaling-stroke" class="st7" points="4376.3,2273.9 4063.8,2273.9 4376.3,2557.9 		"/>
		<polygon vector-effect="non-scaling-stroke" class="st7" points="4063.8,2273.9 4063.8,2557.9 4376.3,2557.9 		"/>
		<polygon vector-effect="non-scaling-stroke" class="st35" points="4376.3,2557.9 4063.8,2557.9 4376.3,2842 		"/>
		<polygon vector-effect="non-scaling-stroke" class="st2" points="4063.8,2557.9 4063.8,2842 4376.3,2842 		"/>
		<polygon vector-effect="non-scaling-stroke" class="st34" points="4376.3,2842 4063.8,2842 4376.3,3126.1 		"/>
		<polygon vector-effect="non-scaling-stroke" class="st4" points="4063.8,2842 4063.8,3126.1 4376.3,3126.1 		"/>
		<polygon vector-effect="non-scaling-stroke" class="st22" points="4063.8,1.1 3751.3,1.1 4063.8,285.2 		"/>
		<polygon vector-effect="non-scaling-stroke" class="st36" points="3751.3,1.1 3751.3,285.2 4063.8,285.2 		"/>
		<polygon vector-effect="non-scaling-stroke" class="st21" points="4063.8,285.2 3751.3,285.2 4063.8,569.3 		"/>
		<polygon vector-effect="non-scaling-stroke" class="st31" points="3751.3,285.2 3751.3,569.3 4063.8,569.3 		"/>
		<polygon vector-effect="non-scaling-stroke" class="st10" points="4063.8,569.3 3751.3,569.3 4063.8,853.4 		"/>
		<polygon vector-effect="non-scaling-stroke" class="st37" points="3751.3,569.3 3751.3,853.4 4063.8,853.4 		"/>
		<polygon vector-effect="non-scaling-stroke" class="st10" points="4063.8,853.4 3751.3,853.4 4063.8,1137.5 		"/>
		<polygon vector-effect="non-scaling-stroke" class="st38" points="3751.3,853.4 3751.3,1137.5 4063.8,1137.5 		"/>
		<polygon vector-effect="non-scaling-stroke" class="st4" points="4063.8,1137.5 3751.3,1137.5 4063.8,1421.6 		"/>
		<polygon vector-effect="non-scaling-stroke" class="st11" points="3751.3,1137.5 3751.3,1421.6 4063.8,1421.6 		"/>
		<polygon vector-effect="non-scaling-stroke" class="st39" points="4063.8,1421.6 3751.3,1421.6 4063.8,1705.7 		"/>
		<polygon vector-effect="non-scaling-stroke" class="st4" points="3751.3,1421.6 3751.3,1705.7 4063.8,1705.7 		"/>
		<polygon vector-effect="non-scaling-stroke" class="st10" points="4063.8,1705.7 3751.3,1705.7 4063.8,1989.8 		"/>
		<polygon vector-effect="non-scaling-stroke" class="st7" points="3751.3,1705.7 3751.3,1989.8 4063.8,1989.8 		"/>
		<polygon vector-effect="non-scaling-stroke" class="st40" points="4063.8,1989.8 3751.3,1989.8 4063.8,2273.9 		"/>
		<polygon vector-effect="non-scaling-stroke" class="st17" points="3751.3,1989.8 3751.3,2273.9 4063.8,2273.9 		"/>
		<polygon vector-effect="non-scaling-stroke" class="st41" points="4063.8,2273.9 3751.3,2273.9 4063.8,2557.9 		"/>
		<polygon vector-effect="non-scaling-stroke" class="st8" points="3751.3,2273.9 3751.3,2557.9 4063.8,2557.9 		"/>
		<polygon vector-effect="non-scaling-stroke" class="st41" points="4063.8,2557.9 3751.3,2557.9 4063.8,2842 		"/>
		<polygon vector-effect="non-scaling-stroke" class="st8" points="3751.3,2557.9 3751.3,2842 4063.8,2842 		"/>
		<polygon vector-effect="non-scaling-stroke" class="st7" points="4063.8,2842 3751.3,2842 4063.8,3126.1 		"/>
		<polygon vector-effect="non-scaling-stroke" class="st19" points="3751.3,2842 3751.3,3126.1 4063.8,3126.1 		"/>
		<polygon vector-effect="non-scaling-stroke" class="st42" points="3751.3,1.1 3438.8,1.1 3751.3,285.2 		"/>
		<polygon vector-effect="non-scaling-stroke" class="st38" points="3438.8,1.1 3438.8,285.2 3751.3,285.2 		"/>
		<polygon vector-effect="non-scaling-stroke" class="st38" points="3751.3,285.2 3438.8,285.2 3751.3,569.3 		"/>
		<polygon vector-effect="non-scaling-stroke" class="st20" points="3438.8,285.2 3438.8,569.3 3751.3,569.3 		"/>
		<polygon vector-effect="non-scaling-stroke" class="st24" points="3751.3,569.3 3438.8,569.3 3751.3,853.4 		"/>
		<polygon vector-effect="non-scaling-stroke" class="st9" points="3438.8,569.3 3438.8,853.4 3751.3,853.4 		"/>
		<polygon vector-effect="non-scaling-stroke" class="st21" points="3751.3,853.4 3438.8,853.4 3751.3,1137.5 		"/>
		<polygon vector-effect="non-scaling-stroke" class="st43" points="3438.8,853.4 3438.8,1137.5 3751.3,1137.5 		"/>
		<polygon vector-effect="non-scaling-stroke" class="st11" points="3751.3,1137.5 3438.8,1137.5 3751.3,1421.6 		"/>
		<polygon vector-effect="non-scaling-stroke" class="st44" points="3438.8,1137.5 3438.8,1421.6 3751.3,1421.6 		"/>
		<polygon vector-effect="non-scaling-stroke" class="st45" points="3751.3,1421.6 3438.8,1421.6 3751.3,1705.7 		"/>
		<polygon vector-effect="non-scaling-stroke" class="st46" points="3438.8,1421.6 3438.8,1705.7 3751.3,1705.7 		"/>
		<polygon vector-effect="non-scaling-stroke" class="st7" points="3751.3,1705.7 3438.8,1705.7 3751.3,1989.8 		"/>
		<polygon vector-effect="non-scaling-stroke" class="st17" points="3438.8,1705.7 3438.8,1989.8 3751.3,1989.8 		"/>
		<polygon vector-effect="non-scaling-stroke" class="st41" points="3751.3,1989.8 3438.8,1989.8 3751.3,2273.9 		"/>
		<polygon vector-effect="non-scaling-stroke" class="st17" points="3438.8,1989.8 3438.8,2273.9 3751.3,2273.9 		"/>
		<polygon vector-effect="non-scaling-stroke" class="st35" points="3751.3,2273.9 3438.8,2273.9 3751.3,2557.9 		"/>
		<polygon vector-effect="non-scaling-stroke" class="st18" points="3438.8,2273.9 3438.8,2557.9 3751.3,2557.9 		"/>
		<polygon vector-effect="non-scaling-stroke" class="st14" points="3751.3,2557.9 3438.8,2557.9 3751.3,2842 		"/>
		<polygon vector-effect="non-scaling-stroke" class="st17" points="3438.8,2557.9 3438.8,2842 3751.3,2842 		"/>
		<polygon vector-effect="non-scaling-stroke" class="st47" points="3751.3,2842 3438.8,2842 3751.3,3126.1 		"/>
		<polygon vector-effect="non-scaling-stroke" class="st8" points="3438.8,2842 3438.8,3126.1 3751.3,3126.1 		"/>
		<polygon vector-effect="non-scaling-stroke" class="st46" points="3438.8,1.1 3126.3,1.1 3438.8,285.2 		"/>
		<polygon vector-effect="non-scaling-stroke" class="st48" points="3126.3,1.1 3126.3,285.2 3438.8,285.2 		"/>
		<polygon vector-effect="non-scaling-stroke" class="st49" points="3438.8,285.2 3126.3,285.2 3438.8,569.3 		"/>
		<polygon vector-effect="non-scaling-stroke" class="st50" points="3126.3,285.2 3126.3,569.3 3438.8,569.3 		"/>
		<polygon vector-effect="non-scaling-stroke" class="st50" points="3438.8,569.3 3126.3,569.3 3438.8,853.4 		"/>
		<polygon vector-effect="non-scaling-stroke" class="st33" points="3126.3,569.3 3126.3,853.4 3438.8,853.4 		"/>
		<polygon vector-effect="non-scaling-stroke" class="st51" points="3438.8,853.4 3126.3,853.4 3438.8,1137.5 		"/>
		<polygon vector-effect="non-scaling-stroke" class="st38" points="3126.3,853.4 3126.3,1137.5 3438.8,1137.5 		"/>
		<polygon vector-effect="non-scaling-stroke" class="st31" points="3438.8,1137.5 3126.3,1137.5 3438.8,1421.6 		"/>
		<polygon vector-effect="non-scaling-stroke" class="st21" points="3126.3,1137.5 3126.3,1421.6 3438.8,1421.6 		"/>
		<polygon vector-effect="non-scaling-stroke" class="st37" points="3438.8,1421.6 3126.3,1421.6 3438.8,1705.7 		"/>
		<polygon vector-effect="non-scaling-stroke" class="st52" points="3126.3,1421.6 3126.3,1705.7 3438.8,1705.7 		"/>
		<polygon vector-effect="non-scaling-stroke" class="st46" points="3438.8,1705.7 3126.3,1705.7 3438.8,1989.8 		"/>
		<polygon vector-effect="non-scaling-stroke" class="st35" points="3126.3,1705.7 3126.3,1989.8 3438.8,1989.8 		"/>
		<polygon vector-effect="non-scaling-stroke" class="st31" points="3438.8,1989.8 3126.3,1989.8 3438.8,2273.9 		"/>
		<polygon vector-effect="non-scaling-stroke" class="st21" points="3126.3,1989.8 3126.3,2273.9 3438.8,2273.9 		"/>
		<polygon vector-effect="non-scaling-stroke" class="st23" points="3438.8,2273.9 3126.3,2273.9 3438.8,2557.9 		"/>
		<polygon vector-effect="non-scaling-stroke" class="st7" points="3126.3,2273.9 3126.3,2557.9 3438.8,2557.9 		"/>
		<polygon vector-effect="non-scaling-stroke" class="st25" points="3438.8,2557.9 3126.3,2557.9 3438.8,2842 		"/>
		<polygon vector-effect="non-scaling-stroke" class="st37" points="3126.3,2557.9 3126.3,2842 3438.8,2842 		"/>
		<polygon vector-effect="non-scaling-stroke" class="st34" points="3438.8,2842 3126.3,2842 3438.8,3126.1 		"/>
		<polygon vector-effect="non-scaling-stroke" class="st16" points="3126.3,2842 3126.3,3126.1 3438.8,3126.1 		"/>
		<polygon vector-effect="non-scaling-stroke" class="st42" points="3126.3,1.1 2813.8,1.1 3126.3,285.2 		"/>
		<polygon vector-effect="non-scaling-stroke" class="st53" points="2813.8,1.1 2813.8,285.2 3126.3,285.2 		"/>
		<polygon vector-effect="non-scaling-stroke" class="st44" points="3126.3,285.2 2813.8,285.2 3126.3,569.3 		"/>
		<polygon vector-effect="non-scaling-stroke" class="st54" points="2813.8,285.2 2813.8,569.3 3126.3,569.3 		"/>
		<polygon vector-effect="non-scaling-stroke" class="st55" points="3126.3,569.3 2813.8,569.3 3126.3,853.4 		"/>
		<polygon vector-effect="non-scaling-stroke" class="st24" points="2813.8,569.3 2813.8,853.4 3126.3,853.4 		"/>
		<polygon vector-effect="non-scaling-stroke" class="st56" points="3126.3,853.4 2813.8,853.4 3126.3,1137.5 		"/>
		<polygon vector-effect="non-scaling-stroke" class="st57" points="2813.8,853.4 2813.8,1137.5 3126.3,1137.5 		"/>
		<polygon vector-effect="non-scaling-stroke" class="st21" points="3126.3,1137.5 2813.8,1137.5 3126.3,1421.6 		"/>
		<polygon vector-effect="non-scaling-stroke" class="st46" points="2813.8,1137.5 2813.8,1421.6 3126.3,1421.6 		"/>
		<polygon vector-effect="non-scaling-stroke" class="st31" points="3126.3,1421.6 2813.8,1421.6 3126.3,1705.7 		"/>
		<polygon vector-effect="non-scaling-stroke" class="st51" points="2813.8,1421.6 2813.8,1705.7 3126.3,1705.7 		"/>
		<polygon vector-effect="non-scaling-stroke" class="st25" points="3126.3,1705.7 2813.8,1705.7 3126.3,1989.8 		"/>
		<polygon vector-effect="non-scaling-stroke" class="st10" points="2813.8,1705.7 2813.8,1989.8 3126.3,1989.8 		"/>
		<polygon vector-effect="non-scaling-stroke" class="st20" points="3126.3,1989.8 2813.8,1989.8 3126.3,2273.9 		"/>
		<polygon vector-effect="non-scaling-stroke" class="st20" points="2813.8,1989.8 2813.8,2273.9 3126.3,2273.9 		"/>
		<polygon vector-effect="non-scaling-stroke" class="st41" points="3126.3,2273.9 2813.8,2273.9 3126.3,2557.9 		"/>
		<polygon vector-effect="non-scaling-stroke" class="st9" points="2813.8,2273.9 2813.8,2557.9 3126.3,2557.9 		"/>
		<polygon vector-effect="non-scaling-stroke" class="st47" points="3126.3,2557.9 2813.8,2557.9 3126.3,2842 		"/>
		<polygon vector-effect="non-scaling-stroke" class="st20" points="2813.8,2557.9 2813.8,2842 3126.3,2842 		"/>
		<polygon vector-effect="non-scaling-stroke" class="st58" points="3126.3,2842 2813.8,2842 3126.3,3126.1 		"/>
		<polygon vector-effect="non-scaling-stroke" class="st59" points="2813.8,2842 2813.8,3126.1 3126.3,3126.1 		"/>
		<polygon vector-effect="non-scaling-stroke" class="st48" points="2813.8,1.1 2501.3,1.1 2813.8,285.2 		"/>
		<polygon vector-effect="non-scaling-stroke" class="st9" points="2501.3,1.1 2501.3,285.2 2813.8,285.2 		"/>
		<polygon vector-effect="non-scaling-stroke" class="st57" points="2813.8,285.2 2501.3,285.2 2813.8,569.3 		"/>
		<polygon vector-effect="non-scaling-stroke" class="st30" points="2501.3,285.2 2501.3,569.3 2813.8,569.3 		"/>
		<polygon vector-effect="non-scaling-stroke" class="st60" points="2813.8,569.3 2501.3,569.3 2813.8,853.4 		"/>
		<polygon vector-effect="non-scaling-stroke" class="st55" points="2501.3,569.3 2501.3,853.4 2813.8,853.4 		"/>
		<polygon vector-effect="non-scaling-stroke" class="st50" points="2813.8,853.4 2501.3,853.4 2813.8,1137.5 		"/>
		<polygon vector-effect="non-scaling-stroke" class="st31" points="2501.3,853.4 2501.3,1137.5 2813.8,1137.5 		"/>
		<polygon vector-effect="non-scaling-stroke" class="st49" points="2813.8,1137.5 2501.3,1137.5 2813.8,1421.6 		"/>
		<polygon vector-effect="non-scaling-stroke" class="st61" points="2501.3,1137.5 2501.3,1421.6 2813.8,1421.6 		"/>
		<polygon vector-effect="non-scaling-stroke" class="st46" points="2813.8,1421.6 2501.3,1421.6 2813.8,1705.7 		"/>
		<polygon vector-effect="non-scaling-stroke" class="st11" points="2501.3,1421.6 2501.3,1705.7 2813.8,1705.7 		"/>
		<polygon vector-effect="non-scaling-stroke" class="st11" points="2813.8,1705.7 2501.3,1705.7 2813.8,1989.8 		"/>
		<polygon vector-effect="non-scaling-stroke" class="st6" points="2501.3,1705.7 2501.3,1989.8 2813.8,1989.8 		"/>
		<polygon vector-effect="non-scaling-stroke" class="st6" points="2813.8,1989.8 2501.3,1989.8 2813.8,2273.9 		"/>
		<polygon vector-effect="non-scaling-stroke" class="st2" points="2501.3,1989.8 2501.3,2273.9 2813.8,2273.9 		"/>
		<polygon vector-effect="non-scaling-stroke" class="st15" points="2813.8,2273.9 2501.3,2273.9 2813.8,2557.9 		"/>
		<polygon vector-effect="non-scaling-stroke" class="st6" points="2501.3,2273.9 2501.3,2557.9 2813.8,2557.9 		"/>
		<polygon vector-effect="non-scaling-stroke" class="st29" points="2813.8,2557.9 2501.3,2557.9 2813.8,2842 		"/>
		<polygon vector-effect="non-scaling-stroke" class="st17" points="2501.3,2557.9 2501.3,2842 2813.8,2842 		"/>
		<polygon vector-effect="non-scaling-stroke" class="st8" points="2813.8,2842 2501.3,2842 2813.8,3126.1 		"/>
		<polygon vector-effect="non-scaling-stroke" class="st14" points="2501.3,2842 2501.3,3126.1 2813.8,3126.1 		"/>
		<polygon vector-effect="non-scaling-stroke" class="st50" points="2501.3,1.1 2188.8,1.1 2501.3,285.2 		"/>
		<polygon vector-effect="non-scaling-stroke" class="st48" points="2188.8,1.1 2188.8,285.2 2501.3,285.2 		"/>
		<polygon vector-effect="non-scaling-stroke" class="st61" points="2501.3,285.2 2188.8,285.2 2501.3,569.3 		"/>
		<polygon vector-effect="non-scaling-stroke" class="st61" points="2188.8,285.2 2188.8,569.3 2501.3,569.3 		"/>
		<polygon vector-effect="non-scaling-stroke" class="st43" points="2501.3,569.3 2188.8,569.3 2501.3,853.4 		"/>
		<polygon vector-effect="non-scaling-stroke" class="st30" points="2188.8,569.3 2188.8,853.4 2501.3,853.4 		"/>
		<polygon vector-effect="non-scaling-stroke" class="st62" points="2501.3,853.4 2188.8,853.4 2501.3,1137.5 		"/>
		<polygon vector-effect="non-scaling-stroke" class="st56" points="2188.8,853.4 2188.8,1137.5 2501.3,1137.5 		"/>
		<polygon vector-effect="non-scaling-stroke" class="st63" points="2501.3,1137.5 2188.8,1137.5 2501.3,1421.6 		"/>
		<polygon vector-effect="non-scaling-stroke" class="st36" points="2188.8,1137.5 2188.8,1421.6 2501.3,1421.6 		"/>
		<polygon vector-effect="non-scaling-stroke" class="st36" points="2501.3,1421.6 2188.8,1421.6 2501.3,1705.7 		"/>
		<polygon vector-effect="non-scaling-stroke" class="st56" points="2188.8,1421.6 2188.8,1705.7 2501.3,1705.7 		"/>
		<polygon vector-effect="non-scaling-stroke" class="st31" points="2501.3,1705.7 2188.8,1705.7 2501.3,1989.8 		"/>
		<polygon vector-effect="non-scaling-stroke" class="st56" points="2188.8,1705.7 2188.8,1989.8 2501.3,1989.8 		"/>
		<polygon vector-effect="non-scaling-stroke" class="st42" points="2501.3,1989.8 2188.8,1989.8 2501.3,2273.9 		"/>
		<polygon vector-effect="non-scaling-stroke" class="st30" points="2188.8,1989.8 2188.8,2273.9 2501.3,2273.9 		"/>
		<polygon vector-effect="non-scaling-stroke" class="st15" points="2501.3,2273.9 2188.8,2273.9 2501.3,2557.9 		"/>
		<polygon vector-effect="non-scaling-stroke" class="st7" points="2188.8,2273.9 2188.8,2557.9 2501.3,2557.9 		"/>
		<polygon vector-effect="non-scaling-stroke" class="st15" points="2501.3,2557.9 2188.8,2557.9 2501.3,2842 		"/>
		<polygon vector-effect="non-scaling-stroke" class="st64" points="2188.8,2557.9 2188.8,2842 2501.3,2842 		"/>
		<polygon vector-effect="non-scaling-stroke" class="st15" points="2501.3,2842 2188.8,2842 2501.3,3126.1 		"/>
		<polygon vector-effect="non-scaling-stroke" class="st59" points="2188.8,2842 2188.8,3126.1 2501.3,3126.1 		"/>
		<polygon vector-effect="non-scaling-stroke" class="st20" points="2188.8,1.1 1876.3,1.1 2188.8,285.2 		"/>
		<polygon vector-effect="non-scaling-stroke" class="st48" points="1876.3,1.1 1876.3,285.2 2188.8,285.2 		"/>
		<polygon vector-effect="non-scaling-stroke" class="st24" points="2188.8,285.2 1876.3,285.2 2188.8,569.3 		"/>
		<polygon vector-effect="non-scaling-stroke" class="st20" points="1876.3,285.2 1876.3,569.3 2188.8,569.3 		"/>
		<polygon vector-effect="non-scaling-stroke" class="st52" points="2188.8,569.3 1876.3,569.3 2188.8,853.4 		"/>
		<polygon vector-effect="non-scaling-stroke" class="st65" points="1876.3,569.3 1876.3,853.4 2188.8,853.4 		"/>
		<polygon vector-effect="non-scaling-stroke" class="st66" points="2188.8,853.4 1876.3,853.4 2188.8,1137.5 		"/>
		<polygon vector-effect="non-scaling-stroke" class="st61" points="1876.3,853.4 1876.3,1137.5 2188.8,1137.5 		"/>
		<polygon vector-effect="non-scaling-stroke" class="st61" points="2188.8,1137.5 1876.3,1137.5 2188.8,1421.6 		"/>
		<polygon vector-effect="non-scaling-stroke" class="st42" points="1876.3,1137.5 1876.3,1421.6 2188.8,1421.6 		"/>
		<polygon vector-effect="non-scaling-stroke" class="st43" points="2188.8,1421.6 1876.3,1421.6 2188.8,1705.7 		"/>
		<polygon vector-effect="non-scaling-stroke" class="st21" points="1876.3,1421.6 1876.3,1705.7 2188.8,1705.7 		"/>
		<polygon vector-effect="non-scaling-stroke" class="st3" points="2188.8,1705.7 1876.3,1705.7 2188.8,1989.8 		"/>
		<polygon vector-effect="non-scaling-stroke" class="st31" points="1876.3,1705.7 1876.3,1989.8 2188.8,1989.8 		"/>
		<polygon vector-effect="non-scaling-stroke" class="st46" points="2188.8,1989.8 1876.3,1989.8 2188.8,2273.9 		"/>
		<polygon vector-effect="non-scaling-stroke" class="st7" points="1876.3,1989.8 1876.3,2273.9 2188.8,2273.9 		"/>
		<polygon vector-effect="non-scaling-stroke" class="st34" points="2188.8,2273.9 1876.3,2273.9 2188.8,2557.9 		"/>
		<polygon vector-effect="non-scaling-stroke" class="st35" points="1876.3,2273.9 1876.3,2557.9 2188.8,2557.9 		"/>
		<polygon vector-effect="non-scaling-stroke" class="st25" points="2188.8,2557.9 1876.3,2557.9 2188.8,2842 		"/>
		<polygon vector-effect="non-scaling-stroke" class="st27" points="1876.3,2557.9 1876.3,2842 2188.8,2842 		"/>
		<polygon vector-effect="non-scaling-stroke" class="st18" points="2188.8,2842 1876.3,2842 2188.8,3126.1 		"/>
		<polygon vector-effect="non-scaling-stroke" class="st28" points="1876.3,2842 1876.3,3126.1 2188.8,3126.1 		"/>
		<polygon vector-effect="non-scaling-stroke" class="st24" points="1876.3,1.1 1563.8,1.1 1876.3,285.2 		"/>
		<polygon vector-effect="non-scaling-stroke" class="st24" points="1563.8,1.1 1563.8,285.2 1876.3,285.2 		"/>
		<polygon vector-effect="non-scaling-stroke" class="st57" points="1876.3,285.2 1563.8,285.2 1876.3,569.3 		"/>
		<polygon vector-effect="non-scaling-stroke" class="st6" points="1563.8,285.2 1563.8,569.3 1876.3,569.3 		"/>
		<polygon vector-effect="non-scaling-stroke" class="st63" points="1876.3,569.3 1563.8,569.3 1876.3,853.4 		"/>
		<polygon vector-effect="non-scaling-stroke" class="st54" points="1563.8,569.3 1563.8,853.4 1876.3,853.4 		"/>
		<polygon vector-effect="non-scaling-stroke" class="st45" points="1876.3,853.4 1563.8,853.4 1876.3,1137.5 		"/>
		<polygon vector-effect="non-scaling-stroke" class="st61" points="1563.8,853.4 1563.8,1137.5 1876.3,1137.5 		"/>
		<polygon vector-effect="non-scaling-stroke" class="st67" points="1876.3,1137.5 1563.8,1137.5 1876.3,1421.6 		"/>
		<polygon vector-effect="non-scaling-stroke" class="st48" points="1563.8,1137.5 1563.8,1421.6 1876.3,1421.6 		"/>
		<polygon vector-effect="non-scaling-stroke" class="st52" points="1876.3,1421.6 1563.8,1421.6 1876.3,1705.7 		"/>
		<polygon vector-effect="non-scaling-stroke" class="st67" points="1563.8,1421.6 1563.8,1705.7 1876.3,1705.7 		"/>
		<polygon vector-effect="non-scaling-stroke" class="st20" points="1876.3,1705.7 1563.8,1705.7 1876.3,1989.8 		"/>
		<polygon vector-effect="non-scaling-stroke" class="st25" points="1563.8,1705.7 1563.8,1989.8 1876.3,1989.8 		"/>
		<polygon vector-effect="non-scaling-stroke" class="st3" points="1876.3,1989.8 1563.8,1989.8 1876.3,2273.9 		"/>
		<polygon vector-effect="non-scaling-stroke" class="st5" points="1563.8,1989.8 1563.8,2273.9 1876.3,2273.9 		"/>
		<polygon vector-effect="non-scaling-stroke" class="st26" points="1876.3,2273.9 1563.8,2273.9 1876.3,2557.9 		"/>
		<polygon vector-effect="non-scaling-stroke" class="st5" points="1563.8,2273.9 1563.8,2557.9 1876.3,2557.9 		"/>
		<polygon vector-effect="non-scaling-stroke" class="st17" points="1876.3,2557.9 1563.8,2557.9 1876.3,2842 		"/>
		<polygon vector-effect="non-scaling-stroke" class="st18" points="1563.8,2557.9 1563.8,2842 1876.3,2842 		"/>
		<polygon vector-effect="non-scaling-stroke" class="st14" points="1876.3,2842 1563.8,2842 1876.3,3126.1 		"/>
		<polygon vector-effect="non-scaling-stroke" class="st22" points="1563.8,2842 1563.8,3126.1 1876.3,3126.1 		"/>
		<polygon vector-effect="non-scaling-stroke" class="st42" points="1563.8,1.1 1251.3,1.1 1563.8,285.2 		"/>
		<polygon vector-effect="non-scaling-stroke" class="st8" points="1251.3,1.1 1251.3,285.2 1563.8,285.2 		"/>
		<polygon vector-effect="non-scaling-stroke" class="st48" points="1563.8,285.2 1251.3,285.2 1563.8,569.3 		"/>
		<polygon vector-effect="non-scaling-stroke" class="st6" points="1251.3,285.2 1251.3,569.3 1563.8,569.3 		"/>
		<polygon vector-effect="non-scaling-stroke" class="st52" points="1563.8,569.3 1251.3,569.3 1563.8,853.4 		"/>
		<polygon vector-effect="non-scaling-stroke" class="st21" points="1251.3,569.3 1251.3,853.4 1563.8,853.4 		"/>
		<polygon vector-effect="non-scaling-stroke" class="st68" points="1563.8,853.4 1251.3,853.4 1563.8,1137.5 		"/>
		<polygon vector-effect="non-scaling-stroke" class="st48" points="1251.3,853.4 1251.3,1137.5 1563.8,1137.5 		"/>
		<polygon vector-effect="non-scaling-stroke" class="st36" points="1563.8,1137.5 1251.3,1137.5 1563.8,1421.6 		"/>
		<polygon vector-effect="non-scaling-stroke" class="st25" points="1251.3,1137.5 1251.3,1421.6 1563.8,1421.6 		"/>
		<polygon vector-effect="non-scaling-stroke" class="st42" points="1563.8,1421.6 1251.3,1421.6 1563.8,1705.7 		"/>
		<polygon vector-effect="non-scaling-stroke" class="st48" points="1251.3,1421.6 1251.3,1705.7 1563.8,1705.7 		"/>
		<polygon vector-effect="non-scaling-stroke" class="st24" points="1563.8,1705.7 1251.3,1705.7 1563.8,1989.8 		"/>
		<polygon vector-effect="non-scaling-stroke" class="st39" points="1251.3,1705.7 1251.3,1989.8 1563.8,1989.8 		"/>
		<polygon vector-effect="non-scaling-stroke" class="st42" points="1563.8,1989.8 1251.3,1989.8 1563.8,2273.9 		"/>
		<polygon vector-effect="non-scaling-stroke" class="st37" points="1251.3,1989.8 1251.3,2273.9 1563.8,2273.9 		"/>
		<polygon vector-effect="non-scaling-stroke" class="st34" points="1563.8,2273.9 1251.3,2273.9 1563.8,2557.9 		"/>
		<polygon vector-effect="non-scaling-stroke" class="st3" points="1251.3,2273.9 1251.3,2557.9 1563.8,2557.9 		"/>
		<polygon vector-effect="non-scaling-stroke" class="st27" points="1563.8,2557.9 1251.3,2557.9 1563.8,2842 		"/>
		<polygon vector-effect="non-scaling-stroke" class="st23" points="1251.3,2557.9 1251.3,2842 1563.8,2842 		"/>
		<polygon vector-effect="non-scaling-stroke" class="st29" points="1563.8,2842 1251.3,2842 1563.8,3126.1 		"/>
		<polygon vector-effect="non-scaling-stroke" class="st59" points="1251.3,2842 1251.3,3126.1 1563.8,3126.1 		"/>
		<polygon vector-effect="non-scaling-stroke" class="st7" points="1251.3,1.1 938.8,1.1 1251.3,285.2 		"/>
		<polygon vector-effect="non-scaling-stroke" class="st4" points="938.8,1.1 938.8,285.2 1251.3,285.2 		"/>
		<polygon vector-effect="non-scaling-stroke" class="st25" points="1251.3,285.2 938.8,285.2 1251.3,569.3 		"/>
		<polygon vector-effect="non-scaling-stroke" class="st20" points="938.8,285.2 938.8,569.3 1251.3,569.3 		"/>
		<polygon vector-effect="non-scaling-stroke" class="st36" points="1251.3,569.3 938.8,569.3 1251.3,853.4 		"/>
		<polygon vector-effect="non-scaling-stroke" class="st56" points="938.8,569.3 938.8,853.4 1251.3,853.4 		"/>
		<polygon vector-effect="non-scaling-stroke" class="st67" points="1251.3,853.4 938.8,853.4 1251.3,1137.5 		"/>
		<polygon vector-effect="non-scaling-stroke" class="st67" points="938.8,853.4 938.8,1137.5 1251.3,1137.5 		"/>
		<polygon vector-effect="non-scaling-stroke" class="st30" points="1251.3,1137.5 938.8,1137.5 1251.3,1421.6 		"/>
		<polygon vector-effect="non-scaling-stroke" class="st32" points="938.8,1137.5 938.8,1421.6 1251.3,1421.6 		"/>
		<polygon vector-effect="non-scaling-stroke" class="st69" points="1251.3,1421.6 938.8,1421.6 1251.3,1705.7 		"/>
		<polygon vector-effect="non-scaling-stroke" class="st21" points="938.8,1421.6 938.8,1705.7 1251.3,1705.7 		"/>
		<polygon vector-effect="non-scaling-stroke" class="st9" points="1251.3,1705.7 938.8,1705.7 1251.3,1989.8 		"/>
		<polygon vector-effect="non-scaling-stroke" class="st2" points="938.8,1705.7 938.8,1989.8 1251.3,1989.8 		"/>
		<polygon vector-effect="non-scaling-stroke" class="st33" points="1251.3,1989.8 938.8,1989.8 1251.3,2273.9 		"/>
		<polygon vector-effect="non-scaling-stroke" class="st35" points="938.8,1989.8 938.8,2273.9 1251.3,2273.9 		"/>
		<polygon vector-effect="non-scaling-stroke" class="st14" points="1251.3,2273.9 938.8,2273.9 1251.3,2557.9 		"/>
		<polygon vector-effect="non-scaling-stroke" class="st16" points="938.8,2273.9 938.8,2557.9 1251.3,2557.9 		"/>
		<polygon vector-effect="non-scaling-stroke" class="st14" points="1251.3,2557.9 938.8,2557.9 1251.3,2842 		"/>
		<polygon vector-effect="non-scaling-stroke" class="st14" points="938.8,2557.9 938.8,2842 1251.3,2842 		"/>
		<polygon vector-effect="non-scaling-stroke" class="st29" points="1251.3,2842 938.8,2842 1251.3,3126.1 		"/>
		<polygon vector-effect="non-scaling-stroke" class="st64" points="938.8,2842 938.8,3126.1 1251.3,3126.1 		"/>
		<polygon vector-effect="non-scaling-stroke" class="st3" points="938.8,1.1 626.3,1.1 938.8,285.2 		"/>
		<polygon vector-effect="non-scaling-stroke" class="st34" points="626.3,1.1 626.3,285.2 938.8,285.2 		"/>
		<polygon vector-effect="non-scaling-stroke" class="st9" points="938.8,285.2 626.3,285.2 938.8,569.3 		"/>
		<polygon vector-effect="non-scaling-stroke" class="st35" points="626.3,285.2 626.3,569.3 938.8,569.3 		"/>
		<polygon vector-effect="non-scaling-stroke" class="st22" points="938.8,569.3 626.3,569.3 938.8,853.4 		"/>
		<polygon vector-effect="non-scaling-stroke" class="st6" points="626.3,569.3 626.3,853.4 938.8,853.4 		"/>
		<polygon vector-effect="non-scaling-stroke" class="st43" points="938.8,853.4 626.3,853.4 938.8,1137.5 		"/>
		<polygon vector-effect="non-scaling-stroke" class="st23" points="626.3,853.4 626.3,1137.5 938.8,1137.5 		"/>
		<polygon vector-effect="non-scaling-stroke" class="st51" points="938.8,1137.5 626.3,1137.5 938.8,1421.6 		"/>
		<polygon vector-effect="non-scaling-stroke" class="st21" points="626.3,1137.5 626.3,1421.6 938.8,1421.6 		"/>
		<polygon vector-effect="non-scaling-stroke" class="st44" points="938.8,1421.6 626.3,1421.6 938.8,1705.7 		"/>
		<polygon vector-effect="non-scaling-stroke" class="st32" points="626.3,1421.6 626.3,1705.7 938.8,1705.7 		"/>
		<polygon vector-effect="non-scaling-stroke" class="st20" points="938.8,1705.7 626.3,1705.7 938.8,1989.8 		"/>
		<polygon vector-effect="non-scaling-stroke" class="st38" points="626.3,1705.7 626.3,1989.8 938.8,1989.8 		"/>
		<polygon vector-effect="non-scaling-stroke" class="st38" points="938.8,1989.8 626.3,1989.8 938.8,2273.9 		"/>
		<polygon vector-effect="non-scaling-stroke" class="st3" points="626.3,1989.8 626.3,2273.9 938.8,2273.9 		"/>
		<polygon vector-effect="non-scaling-stroke" class="st17" points="938.8,2273.9 626.3,2273.9 938.8,2557.9 		"/>
		<polygon vector-effect="non-scaling-stroke" class="st17" points="626.3,2273.9 626.3,2557.9 938.8,2557.9 		"/>
		<polygon vector-effect="non-scaling-stroke" class="st27" points="938.8,2557.9 626.3,2557.9 938.8,2842 		"/>
		<polygon vector-effect="non-scaling-stroke" class="st16" points="626.3,2557.9 626.3,2842 938.8,2842 		"/>
		<polygon vector-effect="non-scaling-stroke" class="st26" points="938.8,2842 626.3,2842 938.8,3126.1 		"/>
		<polygon vector-effect="non-scaling-stroke" class="st12" points="626.3,2842 626.3,3126.1 938.8,3126.1 		"/>
		<polygon vector-effect="non-scaling-stroke" class="st17" points="626.3,1.1 313.8,1.1 626.3,285.2 		"/>
		<polygon vector-effect="non-scaling-stroke" class="st18" points="313.8,1.1 313.8,285.2 626.3,285.2 		"/>
		<polygon vector-effect="non-scaling-stroke" class="st41" points="626.3,285.2 313.8,285.2 626.3,569.3 		"/>
		<polygon vector-effect="non-scaling-stroke" class="st12" points="313.8,285.2 313.8,569.3 626.3,569.3 		"/>
		<polygon vector-effect="non-scaling-stroke" class="st17" points="626.3,569.3 313.8,569.3 626.3,853.4 		"/>
		<polygon vector-effect="non-scaling-stroke" class="st42" points="313.8,569.3 313.8,853.4 626.3,853.4 		"/>
		<polygon vector-effect="non-scaling-stroke" class="st38" points="626.3,853.4 313.8,853.4 626.3,1137.5 		"/>
		<polygon vector-effect="non-scaling-stroke" class="st36" points="313.8,853.4 313.8,1137.5 626.3,1137.5 		"/>
		<polygon vector-effect="non-scaling-stroke" class="st30" points="626.3,1137.5 313.8,1137.5 626.3,1421.6 		"/>
		<polygon vector-effect="non-scaling-stroke" class="st2" points="313.8,1137.5 313.8,1421.6 626.3,1421.6 		"/>
		<polygon vector-effect="non-scaling-stroke" class="st30" points="626.3,1421.6 313.8,1421.6 626.3,1705.7 		"/>
		<polygon vector-effect="non-scaling-stroke" class="st21" points="313.8,1421.6 313.8,1705.7 626.3,1705.7 		"/>
		<polygon vector-effect="non-scaling-stroke" class="st19" points="626.3,1705.7 313.8,1705.7 626.3,1989.8 		"/>
		<polygon vector-effect="non-scaling-stroke" class="st29" points="313.8,1705.7 313.8,1989.8 626.3,1989.8 		"/>
		<polygon vector-effect="non-scaling-stroke" class="st8" points="626.3,1989.8 313.8,1989.8 626.3,2273.9 		"/>
		<polygon vector-effect="non-scaling-stroke" class="st23" points="313.8,1989.8 313.8,2273.9 626.3,2273.9 		"/>
		<polygon vector-effect="non-scaling-stroke" class="st47" points="626.3,2273.9 313.8,2273.9 626.3,2557.9 		"/>
		<polygon vector-effect="non-scaling-stroke" class="st7" points="313.8,2273.9 313.8,2557.9 626.3,2557.9 		"/>
		<polygon vector-effect="non-scaling-stroke" class="st47" points="626.3,2557.9 313.8,2557.9 626.3,2842 		"/>
		<polygon vector-effect="non-scaling-stroke" class="st28" points="313.8,2557.9 313.8,2842 626.3,2842 		"/>
		<polygon vector-effect="non-scaling-stroke" class="st12" points="626.3,2842 313.8,2842 626.3,3126.1 		"/>
		<polygon vector-effect="non-scaling-stroke" class="st28" points="313.8,2842 313.8,3126.1 626.3,3126.1 		"/>
		<polygon vector-effect="non-scaling-stroke" class="st70" points="313.8,1.1 1.3,1.1 313.8,285.2 		"/>
		<polygon vector-effect="non-scaling-stroke" class="st17" points="1.3,1.1 1.3,285.2 313.8,285.2 		"/>
		<polygon vector-effect="non-scaling-stroke" class="st15" points="313.8,285.2 1.3,285.2 313.8,569.3 		"/>
		<polygon vector-effect="non-scaling-stroke" class="st17" points="1.3,285.2 1.3,569.3 313.8,569.3 		"/>
		<polygon vector-effect="non-scaling-stroke" class="st28" points="313.8,569.3 1.3,569.3 313.8,853.4 		"/>
		<polygon vector-effect="non-scaling-stroke" class="st10" points="1.3,569.3 1.3,853.4 313.8,853.4 		"/>
		<polygon vector-effect="non-scaling-stroke" class="st3" points="313.8,853.4 1.3,853.4 313.8,1137.5 		"/>
		<polygon vector-effect="non-scaling-stroke" class="st41" points="1.3,853.4 1.3,1137.5 313.8,1137.5 		"/>
		<polygon vector-effect="non-scaling-stroke" class="st6" points="313.8,1137.5 1.3,1137.5 313.8,1421.6 		"/>
		<polygon vector-effect="non-scaling-stroke" class="st24" points="1.3,1137.5 1.3,1421.6 313.8,1421.6 		"/>
		<polygon vector-effect="non-scaling-stroke" class="st19" points="313.8,1421.6 1.3,1421.6 313.8,1705.7 		"/>
		<polygon vector-effect="non-scaling-stroke" class="st37" points="1.3,1421.6 1.3,1705.7 313.8,1705.7 		"/>
		<polygon vector-effect="non-scaling-stroke" class="st5" points="313.8,1705.7 1.3,1705.7 313.8,1989.8 		"/>
		<polygon vector-effect="non-scaling-stroke" class="st3" points="1.3,1705.7 1.3,1989.8 313.8,1989.8 		"/>
		<polygon vector-effect="non-scaling-stroke" class="st10" points="313.8,1989.8 1.3,1989.8 313.8,2273.9 		"/>
		<polygon vector-effect="non-scaling-stroke" class="st34" points="1.3,1989.8 1.3,2273.9 313.8,2273.9 		"/>
		<polygon vector-effect="non-scaling-stroke" class="st35" points="313.8,2273.9 1.3,2273.9 313.8,2557.9 		"/>
		<polygon vector-effect="non-scaling-stroke" class="st59" points="1.3,2273.9 1.3,2557.9 313.8,2557.9 		"/>
		<polygon vector-effect="non-scaling-stroke" class="st71" points="313.8,2557.9 1.3,2557.9 313.8,2842 		"/>
		<polygon vector-effect="non-scaling-stroke" class="st18" points="1.3,2557.9 1.3,2842 313.8,2842 		"/>
		<polygon vector-effect="non-scaling-stroke" class="st47" points="313.8,2842 1.3,2842 313.8,3126.1 		"/>
		<polygon vector-effect="non-scaling-stroke" class="st72" points="1.3,2842 1.3,3126.1 313.8,3126.1 		"/>
	</g>
</g>
</svg>
